<!-- Generated by IcoMoon.io -->
<svg version="1.1" xmlns="http://www.w3.org/2000/svg" width="32" height="32" viewBox="0 0 32 32">
<title>facebook</title>
<path fill="#3d5899" d="M16 32c-8.853 0-16-7.147-16-16s7.147-16 16-16 16 7.147 16 16-7.147 16-16 16zM20.48 6.72c-0.533-0.107-1.387-0.107-2.453-0.107-1.28 0-2.24 0.32-2.987 1.067s-1.067 1.813-1.067 3.093v2.347h-2.773v3.2h2.773v8.107h3.307v-8.107h2.773l0.427-3.2h-3.093v-2.027c0-0.533 0.107-0.853 0.32-1.173 0.213-0.213 0.64-0.427 1.28-0.427h1.707v-2.773z"></path>
</svg>
