<!-- Generated by IcoMoon.io -->
<svg version="1.1" xmlns="http://www.w3.org/2000/svg" width="32" height="32" viewBox="0 0 32 32">
<title>instagram</title>
<path fill="#e12468" d="M32 16c0 8.837-7.163 16-16 16s-16-7.163-16-16c0-8.837 7.163-16 16-16s16 7.163 16 16z"></path>
<path fill="#fff" d="M18.453 15.573c0-0.747-0.32-1.387-0.853-1.92s-1.173-0.853-1.92-0.853c-0.747 0-1.387 0.32-1.92 0.853s-0.853 1.173-0.853 1.92c0 0.747 0.32 1.387 0.853 1.92s1.173 0.853 1.92 0.853c0.747 0 1.387-0.32 1.92-0.853s0.853-1.173 0.853-1.92zM19.947 15.573c0 1.173-0.427 2.133-1.28 2.987s-1.813 1.28-2.987 1.28c-1.173 0-2.133-0.427-2.987-1.28s-1.28-1.813-1.28-2.987c0-1.173 0.427-2.133 1.28-2.987s1.813-1.28 2.987-1.28c1.173 0 2.133 0.427 2.987 1.28 0.853 0.747 1.28 1.813 1.28 2.987zM21.12 11.093c0 0.32-0.107 0.533-0.32 0.747s-0.427 0.32-0.747 0.32c-0.32 0-0.533-0.107-0.747-0.32s-0.32-0.427-0.32-0.747 0.107-0.533 0.32-0.747c0.213-0.213 0.427-0.32 0.747-0.32s0.533 0.107 0.747 0.32c0.213 0.32 0.32 0.533 0.32 0.747zM15.68 8.747c0 0-0.32 0-0.853 0s-0.853 0-1.173 0c-0.213 0-0.64 0-1.067 0s-0.853 0.107-1.067 0.107c-0.32 0.107-0.533 0.107-0.747 0.213-0.32 0.107-0.64 0.32-0.96 0.64s-0.427 0.533-0.64 0.96c-0.107 0.213-0.107 0.427-0.213 0.747s-0.107 0.64-0.107 1.067c0 0.427 0 0.747 0 1.067 0 0.213 0 0.64 0 1.173s0 0.747 0 0.853 0 0.32 0 0.853 0 0.853 0 1.173c0 0.213 0 0.64 0 1.067s0.107 0.853 0.107 1.067c0.107 0.32 0.107 0.533 0.213 0.747 0.107 0.32 0.32 0.64 0.64 0.96s0.533 0.427 0.96 0.64c0.213 0.107 0.427 0.107 0.747 0.213s0.64 0.107 1.067 0.107c0.427 0 0.747 0 1.067 0 0.213 0 0.64 0 1.173 0s0.747 0 0.853 0 0.32 0 0.853 0 0.853 0 1.173 0c0.213 0 0.64 0 1.067 0s0.853-0.107 1.067-0.107c0.32-0.107 0.533-0.107 0.747-0.213 0.32-0.107 0.64-0.32 0.96-0.64s0.427-0.533 0.64-0.96c0.107-0.213 0.107-0.427 0.213-0.747s0.107-0.64 0.107-1.067c0-0.427 0-0.747 0-1.067 0-0.213 0-0.64 0-1.173s0-0.747 0-0.853 0-0.32 0-0.853 0-0.853 0-1.173c0-0.213 0-0.64 0-1.067s-0.107-0.853-0.107-1.067c-0.107-0.32-0.107-0.533-0.213-0.747-0.107-0.32-0.32-0.64-0.64-0.96s-0.533-0.427-0.96-0.64c-0.213-0.107-0.427-0.107-0.747-0.213s-0.64-0.107-1.067-0.107c-0.427 0-0.747 0-1.067 0-0.213 0-0.64 0-1.173 0s-0.747 0-0.853 0zM23.893 15.573c0 1.6 0 2.773-0.107 3.413-0.107 1.493-0.533 2.667-1.28 3.413s-1.92 1.28-3.413 1.28c-0.64 0-1.813 0.107-3.413 0.107s-2.773 0-3.413-0.107c-1.493-0.107-2.667-0.533-3.413-1.28s-1.28-1.92-1.28-3.413c0-0.64-0.107-1.813-0.107-3.413s0-2.773 0.107-3.413c0.107-1.493 0.533-2.667 1.28-3.413s1.92-1.28 3.413-1.28c0.64 0 1.813-0.107 3.413-0.107s2.773 0 3.413 0.107c1.493 0.107 2.667 0.533 3.413 1.28s1.28 1.92 1.28 3.413c0.107 0.64 0.107 1.707 0.107 3.413z"></path>
</svg>
