<!-- Generated by IcoMoon.io -->
<svg version="1.1" xmlns="http://www.w3.org/2000/svg" width="32" height="32" viewBox="0 0 32 32">
<title>linkedin</title>
<path fill="#0077b5" d="M16 32c-8.853 0-16-7.147-16-16s7.147-16 16-16 16 7.147 16 16-7.147 16-16 16zM11.733 12.587h-3.52v10.667h3.52v-10.667zM11.947 9.28c0-0.533-0.213-0.96-0.533-1.28s-0.853-0.533-1.387-0.533-1.067 0.213-1.493 0.533-0.533 0.747-0.533 1.28c0 0.533 0.213 0.96 0.533 1.28s0.853 0.533 1.387 0.533v0c0.64 0 1.067-0.213 1.493-0.533s0.533-0.747 0.533-1.28zM17.173 14.080v-1.493h-3.52v0.533c0 0.32 0 1.387 0 3.2s0 4.053 0 6.933h3.52v-5.973c0-0.32 0-0.64 0.107-0.853 0.107-0.32 0.427-0.64 0.64-0.96s0.64-0.32 1.173-0.32c0.64 0 1.067 0.213 1.387 0.64s0.427 0.96 0.427 1.813v5.653h3.52v-6.080c0-1.6-0.32-2.773-1.067-3.52s-1.707-1.173-2.987-1.173c-0.427 0-0.853 0.107-1.28 0.213s-0.64 0.213-0.96 0.427-0.427 0.427-0.64 0.533c0 0-0.107 0.213-0.32 0.427z"></path>
</svg>
