<!-- Generated by IcoMoon.io -->
<svg version="1.1" xmlns="http://www.w3.org/2000/svg" width="32" height="32" viewBox="0 0 32 32">
<title>twitter</title>
<path fill="#299cd3" d="M15.947 32c-8.853 0-16-7.147-16-16s7.147-16 16-16 16 7.147 16 16-7.147 16-16 16zM25.333 11.307c-0.64 0.32-1.28 0.427-2.027 0.533 0.747-0.427 1.28-1.067 1.493-1.92-0.64 0.427-1.387 0.64-2.24 0.853-0.64-0.747-1.493-1.067-2.56-1.067-0.96 0-1.813 0.32-2.453 0.96s-0.96 1.493-0.96 2.453c0 0.213 0 0.533 0.107 0.747-1.387-0.107-2.773-0.427-3.947-1.067s-2.24-1.493-3.2-2.56c-0.32 0.533-0.427 1.067-0.427 1.707s0.107 1.173 0.427 1.6c0.32 0.533 0.64 0.96 1.173 1.28-0.533 0-1.067-0.213-1.6-0.427v0c0 0.853 0.213 1.6 0.747 2.24s1.173 1.067 2.027 1.173c-0.32 0.107-0.64 0.107-0.96 0.107-0.213 0-0.427 0-0.64-0.107 0.213 0.64 0.64 1.28 1.173 1.707 0.64 0.427 1.28 0.64 2.027 0.64-1.28 0.96-2.667 1.493-4.267 1.493-0.32 0-0.533 0-0.853 0 1.6 1.067 3.413 1.6 5.333 1.6 1.28 0 2.347-0.213 3.413-0.533 1.067-0.427 2.027-0.96 2.773-1.6s1.387-1.387 2.027-2.24 0.96-1.707 1.28-2.667 0.427-1.813 0.427-2.773c0-0.213 0-0.32 0-0.427 0.64-0.427 1.173-0.96 1.707-1.707z"></path>
</svg>
