<!-- Generated by IcoMoon.io -->
<svg version="1.1" xmlns="http://www.w3.org/2000/svg" width="32" height="32" viewBox="0 0 32 32">
<title>youtube</title>
<path fill="#ca2e24" d="M31.947 16.053c0 8.807-7.14 15.947-15.947 15.947s-15.947-7.14-15.947-15.947c0-8.807 7.14-15.947 15.947-15.947s15.947 7.14 15.947 15.947z"></path>
<path fill="#fff" d="M18.445 20.412v2.233c0 0.425-0.106 0.744-0.425 0.744-0.213 0-0.319-0.106-0.532-0.213v-3.189c0.106-0.106 0.319-0.213 0.532-0.213 0.213-0.106 0.425 0.106 0.425 0.638zM21.953 20.412v0.532h-0.957v-0.532c0-0.532 0.213-0.744 0.532-0.744s0.425 0.213 0.425 0.744zM11.641 18.073h1.169v-0.957h-3.296v0.957h1.169v6.060h1.063v-6.060zM14.724 24.133h0.957v-5.316h-0.957v4.040c-0.213 0.319-0.425 0.425-0.638 0.425-0.106 0-0.213-0.106-0.213-0.213 0 0 0-0.106 0-0.425v-3.934h-0.957v4.146c0 0.319 0 0.638 0.106 0.744 0.106 0.213 0.319 0.425 0.638 0.425s0.744-0.213 1.063-0.638v0.744zM19.296 22.538v-2.126c0-0.532 0-0.851-0.106-1.063-0.106-0.425-0.425-0.638-0.744-0.638s-0.638 0.213-0.957 0.532v-2.339h-0.957v7.123h0.957v-0.532c0.319 0.425 0.638 0.638 0.957 0.638 0.425 0 0.638-0.213 0.744-0.638 0.106-0.106 0.106-0.425 0.106-0.957zM22.91 22.432v-0.106h-0.957c0 0.319 0 0.532 0 0.638 0 0.213-0.213 0.425-0.425 0.425-0.319 0-0.532-0.213-0.532-0.744v-0.957h1.914v-1.063c0-0.532-0.106-0.957-0.319-1.276-0.319-0.319-0.638-0.532-1.169-0.532s-0.851 0.213-1.169 0.532c-0.213 0.213-0.319 0.638-0.319 1.276v1.807c0 0.532 0.106 0.957 0.319 1.276 0.319 0.319 0.638 0.532 1.169 0.532s0.851-0.213 1.169-0.532c0.106-0.213 0.213-0.425 0.213-0.532 0.106-0.213 0.106-0.425 0.106-0.744zM16.425 12.651v-2.233c0-0.532-0.106-0.744-0.425-0.744s-0.425 0.213-0.425 0.744v2.233c0 0.532 0.106 0.744 0.425 0.744s0.425-0.213 0.425-0.744zM24.186 20.731c0 1.701-0.106 2.87-0.319 3.721-0.106 0.425-0.319 0.744-0.638 1.063s-0.638 0.425-1.063 0.532c-1.276 0.106-3.296 0.213-5.954 0.213s-4.571-0.106-5.954-0.213c-0.425 0-0.744-0.213-1.063-0.532s-0.532-0.638-0.638-1.063c-0.213-0.851-0.319-2.020-0.319-3.721s0.106-2.87 0.319-3.721c0.106-0.425 0.319-0.744 0.638-1.063s0.638-0.425 1.063-0.532c1.276-0.106 3.296-0.213 5.954-0.213s4.571 0.106 5.953 0.213c0.425 0 0.744 0.213 1.063 0.532s0.532 0.638 0.638 1.063c0.213 0.744 0.319 2.020 0.319 3.721zM13.448 7.123h1.063l-1.276 4.253v2.87h-1.063v-2.87c-0.106-0.532-0.319-1.276-0.638-2.233-0.213-0.744-0.532-1.382-0.744-2.020h1.169l0.744 2.764 0.744-2.764zM17.382 10.631v1.914c0 0.532-0.106 0.957-0.319 1.276-0.319 0.319-0.638 0.532-1.169 0.532-0.425 0-0.851-0.213-1.169-0.532-0.213-0.319-0.319-0.638-0.319-1.276v-1.914c0-0.532 0.106-0.957 0.319-1.276 0.319-0.319 0.638-0.532 1.169-0.532s0.851 0.213 1.169 0.532c0.319 0.319 0.319 0.744 0.319 1.276zM20.997 8.93v5.316h-0.957v-0.638c-0.425 0.425-0.744 0.638-1.063 0.638s-0.532-0.106-0.638-0.425c-0.106-0.213-0.106-0.425-0.106-0.851v-4.252h0.957v3.934c0 0.213 0 0.319 0 0.425s0.106 0.213 0.213 0.213c0.213 0 0.425-0.106 0.638-0.425v-4.040h0.957z"></path>
</svg>
