<?xml version="1.0" encoding="UTF-8"?>
<svg width="1656px" height="2754px" viewBox="0 0 1656 2754" version="1.1" xmlns="http://www.w3.org/2000/svg" xmlns:xlink="http://www.w3.org/1999/xlink">
    <!-- Generator: Sketch 49.3 (51167) - http://www.bohemiancoding.com/sketch -->
    <title>GSC_Clocktower_Logo_B&amp;W</title>
    <desc>Created with Sketch.</desc>
    <defs>
        <polygon id="path-1" points="0 0.847327464 1655.45878 0.847327464 1655.45878 2753.04764 0 2753.04764"></polygon>
    </defs>
    <g id="Page-1" stroke="none" stroke-width="1" fill="none" fill-rule="evenodd" opacity="0.03">
        <g id="Desktop-HD" transform="translate(-15.000000, -62.000000)">
            <g id="GSC_Clocktower_Logo_B&amp;W" transform="translate(15.000000, 62.000000)">
                <path d="M581.807141,1044.36853 C598.324431,1038.57566 612.276075,1030.05299 616.147315,1010.99206 C606.446444,1013.67424 584.721957,1026.00592 581.807141,1044.36853 Z M618.606691,952 C629.582794,969.584936 620.625808,1008.08769 623.510261,1034.10007 C619.942648,1037.79798 615.737419,1036.08393 616.147315,1028.97377 C606.598257,1034.36987 597.762721,1040.55952 594.058476,1052.01829 C606.4009,1051.31997 615.039078,1035.70303 626,1041.79744 C617.483272,1059.41412 600.93562,1068.58749 576.858026,1070 C572.667979,1057.35091 574.854091,1037.95669 572,1023.83161 C594.058476,1031.73531 599.007591,1005.83403 616.147315,1000.7236 C617.483272,984.979691 613.35395,963.585743 618.606691,952 Z" id="Fill-1" fill="#0A0B09"></path>
                <path d="M1149,1085 C1166.23957,1091.76468 1139.75116,1097.23029 1146.29675,1110.63292 C1156.49768,1112.40726 1153.16538,1101.66615 1157.24575,1097.81646 C1160.95209,1102.87017 1162.77125,1109.72991 1171,1110.63292 C1162.2102,1112.6449 1160.034,1120.91461 1154.5085,1126 C1142.19938,1122.92658 1138.57805,1111.78941 1138,1097.81646 C1146.73879,1098.21252 1143.38949,1087.45556 1149,1085" id="Fill-2" fill="#0A0B09"></path>
                <path d="M1034.21687,1095 C1049.01325,1104.70558 1062.70267,1115.34781 1058.09033,1141.97761 C1032.0214,1142.9627 1031.19118,1111.19751 1034.21687,1095" id="Fill-3" fill="#0A0B09"></path>
                <path d="M414.031574,1104 C429.432505,1113.28249 425.032239,1136.76265 414.031574,1147 C409.101952,1139.90899 397.472678,1139.14197 398.018576,1126.79141 C400.400675,1125.63305 402.799316,1124.56862 403.378298,1121.73535 C410.524595,1121.73535 409.217749,1129.70295 416.761062,1129.31161 C424.403629,1124.33382 415.172996,1114.17474 408.721478,1114.12778 C408.771105,1109.10302 416.016656,1110.90317 414.031574,1104" id="Fill-4" fill="#0A0B09"></path>
                <path d="M1044.77354,1159 C1047.80419,1159 1050.77871,1159 1053.84677,1159 C1061.74142,1170.91924 1066.19385,1185.74791 1069,1202 C1063.94892,1202 1058.89785,1202 1053.84677,1202 C1055.58659,1184.76246 1037.384,1172.6868 1044.77354,1159" id="Fill-5" fill="#0A0B09"></path>
                <path d="M1185.67151,1159 C1192.16061,1163.94965 1182.71029,1168.21611 1185.67151,1177 C1177.7018,1177 1169.91488,1177 1162,1177 C1162,1171.77149 1162,1166.5151 1162,1161.24477 C1170.40841,1159.13943 1174.61262,1165.65066 1185.67151,1159" id="Fill-6" fill="#0A0B09"></path>
                <path d="M1245.16193,1181.49121 C1253.67196,1178.87209 1250.18022,1187.35996 1250.79434,1192 C1247.93427,1192 1245.16193,1192 1242.26676,1192 C1241.0736,1186.51926 1244.21442,1185.01569 1245.16193,1181.49121" id="Fill-7" fill="#0A0B09"></path>
                <path d="M382.412795,1184.0382 C387.140637,1183.43309 395.911369,1190.30938 398.634473,1184.0382 C405.500703,1189.16791 402.510301,1193.94006 401.324164,1201.83404 C394.073692,1196.12672 387.073813,1203.14054 377,1201.83404 C380.842416,1192.79859 380.39135,1191.82216 382.412795,1184.0382" id="Fill-8" fill="#0A0B09"></path>
                <path d="M1239,1193 C1242.69932,1193 1246.46747,1193 1250.13238,1193 C1249.82267,1197.91467 1253.59082,1198.7929 1252.91978,1203.9609 C1244.00699,1204.50135 1240.87547,1199.36712 1239,1193" id="Fill-9" fill="#0A0B09"></path>
                <path d="M1175.23901,1209 C1181.39199,1225.54502 1203.00086,1234.51695 1193.71427,1258.36172 C1176.00609,1262.81553 1183.48106,1242.49201 1170,1242.76534 C1176.75685,1230.65806 1166.08298,1217.15192 1175.23901,1209" id="Fill-10" fill="#0A0B09"></path>
                <path d="M1088,1223.02805 C1097.34315,1222.38587 1102.43785,1232.92407 1096.35875,1239 C1093.25013,1233.92849 1089.43342,1229.64735 1088,1223.02805" id="Fill-11" fill="#0A0B09"></path>
                <path d="M1089.92759,1237.76696 C1090.77506,1245.65462 1083.94545,1246.77094 1081.86832,1252 C1066.99604,1249.50298 1084.42734,1230.1437 1089.92759,1237.76696" id="Fill-12" fill="#0A0B09"></path>
                <path d="M388.629812,1243 C399.102441,1245.21452 394.305008,1257.37146 396,1272.64399 C383.938316,1275.28614 385.28523,1291.50557 369.092003,1289.88668 C368.350444,1276.52322 372.436585,1273.49925 369.092003,1262.76266 C378.187451,1258.74598 383.438899,1250.94172 388.629812,1243" id="Fill-13" fill="#0A0B09"></path>
                <path d="M1207,1253.04466 C1218.03963,1251.95725 1209.96637,1271.01374 1212.46083,1279 C1202.58415,1274.63251 1212.69679,1264.06142 1207,1253.04466" id="Fill-14" fill="#0A0B09"></path>
                <path d="M478.489814,1259 C490.611158,1260.93993 494.936473,1269.17668 486.931153,1277 C485.326601,1269.87633 472.751796,1264.9629 478.489814,1259" id="Fill-15" fill="#0A0B09"></path>
                <path d="M396.034712,1279 C400.034722,1286.68597 408.389955,1290.00668 411,1299.18931 C397.440121,1306.46993 401.347467,1331.41425 391.015395,1342 C363.895637,1330.72829 382.057844,1291.87751 396.034712,1279" id="Fill-16" fill="#0A0B09"></path>
                <path d="M1165.9076,1327 C1169.97076,1328.01005 1174.2516,1340.89954 1177.62548,1334.35681 C1186.45924,1335.93973 1174.83205,1339.55783 1177.62548,1344.11061 C1166.10713,1348.58801 1162.42488,1334.32666 1157.07384,1341.66839 C1149.32842,1337.38697 1165.76248,1332.80404 1165.9076,1327" id="Fill-17" fill="#0A0B09"></path>
                <path d="M1144.77699,1367 C1135.26804,1366.61837 1138.73697,1356.25088 1138.16562,1349 C1148.02146,1349.31802 1148.67443,1363.56537 1144.77699,1367" id="Fill-18" fill="#0A0B09"></path>
                <path d="M1182,1366.1826 C1190.69565,1363.70655 1187.68116,1387.55482 1190,1368.82155 C1196.45963,1367.82787 1188.49275,1380.84342 1198,1376.77097 C1194.5383,1386.18648 1189.2381,1377.56917 1182,1382 C1182,1376.77097 1182,1371.46049 1182,1366.1826" id="Fill-19" fill="#0A0B09"></path>
                <path d="M1162,1724 C1173.40246,1725.43511 1170.26078,1739.91965 1171,1751 C1160.17043,1744.80902 1169.85421,1734.62979 1162,1724" id="Fill-20" fill="#0A0B09"></path>
                <path d="M272.141588,2104.02682 C273.027796,2125.43004 269.150639,2151.66574 277.253105,2165.86013 C278.851443,2157.18401 273.914003,2141.9051 279.785125,2137.55109 C288.9637,2137.79032 287.302061,2148.81091 292.587654,2153.03733 C297.841597,2135.47776 307.732302,2132.73457 313.049545,2119.49711 C315.771468,2121.88942 313.856627,2128.95472 320.724733,2127.20035 C328.39992,2118.01387 340.252941,2107.02518 359.13232,2109.14637 C362.297345,2100.3905 363.246853,2089.29017 369.307877,2083.38913 C393.314597,2075.60614 427.212022,2055.90943 440.948234,2029.25907 C456.187832,2037.10585 464.796702,2012.72021 479.339995,2026.67537 C485.923249,2018.70099 483.834332,2001.97075 494.642894,1998.27064 C490.148558,1997.72839 481.903666,2000.93408 484.451512,1993.18299 C488.977498,1988.30267 497.934521,1990.45575 499.801886,1995.73479 C510.278121,1990.80663 516.608173,1981.69989 530.48681,1980.24855 C529.822155,1975.52772 519.567472,1967.5055 527.92314,1962.19457 C531.72117,1962.65708 530.281084,1968.41458 530.48681,1972.51341 C548.559107,1972.65695 544.017295,1949.99377 566.314901,1954.45942 C566.583928,1939.32406 584.909427,1942.27457 591.872484,1933.83769 C591.619282,1917.79324 587.631349,1905.41701 589.340463,1887.44277 C483.0589,1956.45302 381.698953,2044.23495 277.253105,2106.56267 C377.489469,2027.13788 487.553237,1957.58538 586.792617,1877.10797 C478.944367,1949.77049 376.555786,2027.93532 272.141588,2104.02682 Z M267.030072,2202 C271.983337,2184.53612 292.429403,2180.11831 305.374358,2171.04347 C399.8029,2105.07943 506.717467,2032.16174 602.095517,1964.77826 C596.445946,1927.72931 601.604938,1881.41414 602.095517,1856.48624 C572.011947,1866.72534 546.185338,1892.35498 517.715932,1913.2319 C435.757591,1973.24705 345.127081,2034.10749 264.418926,2098.81157 C265.969788,2123.13342 261.238075,2153.61149 267.030072,2173.57932 C276.256122,2152.7981 261.554577,2130.64528 269.546267,2104.02682 C276.145346,2082.17703 327.75109,2057.07369 348.830161,2042.11376 C428.921136,1985.3362 518.617964,1915.95913 594.467805,1866.83698 C596.477596,1885.17804 597.490404,1915.89534 597.031476,1949.33987 C546.185338,1992.67263 486.318877,2028.47758 430.709376,2067.95074 C374.577645,2107.72693 320.107553,2149.46481 261.855255,2178.77862 C256.395586,2154.23349 260.700021,2119.76824 259.339059,2091.09238 C374.894147,2009.06795 488.660996,1925.22536 602.095517,1841 C615.910854,1872.16386 606.748104,1912.83318 609.786529,1967.34601 C499.770236,2049.81701 384.294274,2126.84948 267.030072,2202 Z" id="Fill-21" fill="#0A0B09"></path>
                <path d="M566.477326,1923 C574.092769,1923.03189 572.67294,1937.57219 569.12337,1941 C563.508594,1938.81577 559.91062,1934.68645 561.298179,1925.53499 C564.331449,1926.01329 565.912621,1924.99291 566.477326,1923" id="Fill-22" fill="#0A0B09"></path>
                <path d="M543.755734,1939.22146 C553.340185,1937.2604 553.682486,1948.85621 549.283908,1953 C542.283836,1952.33495 537.833912,1944.84883 543.755734,1939.22146" id="Fill-23" fill="#0A0B09"></path>
                <path d="M508.294224,1962 C513.434226,1962 518.670603,1962 523.826667,1962 C524.196105,1968.59114 524.22823,1974.86921 521.272728,1978 C513.867913,1975.85788 506.414911,1973.66632 508.294224,1962" id="Fill-24" fill="#0A0B09"></path>
                <path d="M506.455723,1986.60706 C501.957773,1985.01669 491.319004,1989.95879 491,1983.83675 C491.526356,1974.15776 510.411367,1971.69527 506.455723,1986.60706" id="Fill-25" fill="#0A0B09"></path>
                <path d="M319.333717,2098 C322.210638,2098 325.069802,2098 328,2098 C328,2101.51461 328,2104.96502 328,2108.39939 C318.356984,2110.98319 318.55233,2104.80454 319.333717,2098" id="Fill-26" fill="#0A0B09"></path>
                <path d="M310.520583,2112.03604 C312.760165,2120.95985 306.489335,2120.66642 305.353547,2126 C300.810395,2125.34409 299.482643,2121.20151 300.170514,2114.81502 C302.490081,2112.6229 306.009425,2111.81165 310.520583,2112.03604" id="Fill-27" fill="#0A0B09"></path>
                <path d="M289.876414,2118 C304.239008,2128.37401 284.629153,2141.37783 277.083242,2133.66589 C275.767464,2122.79173 290.494671,2128.21268 289.876414,2118" id="Fill-28" fill="#0A0B09"></path>
                <path d="M743.318816,2419.6451 C735.448403,2421.16831 738.644754,2406.31699 730.324603,2399.16107 C704.352239,2376.45569 623.752781,2384.27802 618.709292,2409.34755 C614.308285,2431.51346 649.773331,2457.32873 668.019841,2470.97417 C694.747122,2490.76006 747.800133,2513.4813 745.952995,2553.02135 C743.864926,2597.17863 659.137517,2612.18862 618.709292,2611.99821 C564.660433,2611.80781 496.171774,2594.57648 494.051581,2555.5759 C491.78683,2512.65623 564.628309,2493.71128 608.333196,2488.90364 C518.931725,2513.5765 557.817992,2616.85345 649.869704,2599.16198 C668.341082,2595.65542 685.029571,2583.05719 686.202102,2565.84172 C690.137309,2509.07034 568.772322,2488.07857 566.796688,2435.05175 C565.41535,2397.81239 628.619588,2377.07449 668.019841,2376.05902 C704.320115,2375.05941 753.582477,2386.64217 743.318816,2419.6451" id="Fill-29" fill="#0A0B09"></path>
                <path d="M530,2418.56289 C508.929134,2458.42135 479.826772,2504.85441 456.173228,2553.9742 C448.456693,2570.03138 443.748031,2592.18902 433.291339,2599.93313 C416.425197,2612.52917 389.811024,2606.44451 367.102362,2612.71882 C354.251969,2616.24318 348.472441,2628.52313 334,2625.53611 C356,2559.03158 399.370079,2513.9893 435.826772,2462.02474 C407.779528,2468.80478 373.354331,2491.26271 344.141732,2505.43917 C358.929134,2476.54889 395.401575,2460.52333 425.637795,2446.69456 C456.393701,2432.5497 492.787402,2414.5802 530,2418.56289" id="Fill-30" fill="#0A0B09"></path>
                <g id="Group-34">
                    <mask id="mask-2" fill="white">
                        <use xlink:href="#path-1"></use>
                    </mask>
                    <g id="Clip-32"></g>
                    <path d="M1097.67572,2574.40136 C1158.43948,2551.75114 1306.09496,2631.44754 1308.46444,2538.44989 C1319.07146,2545.25924 1322.74496,2564.0048 1318.76931,2579.4806 C1298.76387,2656.49453 1129.09922,2573.60773 1051.3515,2597.46427 C1031.18702,2603.62285 1034.16081,2612.33691 1012.81954,2610.28934 C1044.6088,2578.24254 1090.40824,2571.83 1136.19177,2551.29084 C1166.78834,2537.62451 1233.97675,2504.79995 1228.7448,2464.05494 C1222.11342,2411.34199 1085.97142,2430.00818 1089.97887,2479.43551 C1092.74592,2514.33939 1164.67329,2513.24418 1167.05868,2474.30865 C1186.80969,2523.4344 1068.57399,2526.08512 1064.26439,2484.60998 C1062.61052,2468.70562 1078.95838,2451.94414 1092.50738,2443.51578 C1133.3134,2418.2307 1321.91803,2393.99322 1316.11358,2476.88002 C1313.88722,2509.86331 1245.64924,2532.62464 1221.01614,2541.02125 C1181.75267,2554.48123 1144.09535,2563.89369 1097.67572,2574.40136" id="Fill-31" fill="#0A0B09" mask="url(#mask-2)"></path>
                    <path d="M18.0176253,2346.04205 C12.0064494,2455.45199 17.1429833,2576.05211 15.441407,2689.82702 C276.784438,2689.82702 538.111567,2689.82702 799.470501,2689.82702 C772.706456,2604.33711 851.074379,2553.11619 907.43313,2517.91073 C962.281135,2483.68937 1021.61367,2458.45191 1064.26439,2430.70658 C1018.54447,2440.13491 959.863942,2458.29318 897.160062,2453.76949 C871.254756,2451.94414 808.201019,2443.51578 812.33569,2415.26253 C816.677095,2385.39026 918.040152,2388.00925 935.739726,2410.13567 C920.266513,2402.62792 887.427682,2393.40593 868.869369,2405.00882 C894.520233,2430.86531 970.184718,2426.00829 1025.71653,2423.05598 C1055.32714,2421.37348 1082.21841,2412.23086 1100.23603,2412.73878 C1012.74003,2496.45095 898.289145,2553.35428 863.732835,2689.82702 C1121.65681,2688.11278 1386.4507,2693.2555 1640.08098,2687.25565 C1638.3317,2574.40136 1643.48413,2454.64248 1637.47296,2346.04205 C1351.29009,2346.04205 1065.12313,2346.04205 778.89256,2346.04205 C786.112332,2362.91464 808.853024,2382.73954 807.183253,2407.64367 C804.034542,2454.38852 730.962178,2471.29286 686.339533,2481.97513 C735.907881,2465.34063 791.217061,2397.56456 737.800288,2346.04205 C497.862132,2346.04205 257.892171,2346.04205 18.0176253,2346.04205 Z M1280.18965,1971.40072 C1294.88364,1981.5592 1309.67304,2000.03492 1321.32963,1997.08261 C1296.31487,1975.79744 1262.29925,1949.94095 1233.97675,1940.59198 C1245.52202,1951.68693 1264.58922,1960.59147 1280.18965,1971.40072 Z M1323.85814,1976.54345 C1299.03421,1950.02031 1263.11028,1934.608 1233.97675,1912.37047 C1256.28807,1941.38561 1292.14839,1956.89315 1323.85814,1976.54345 Z M1277.61343,1925.19554 C1292.212,1935.73496 1310.0388,1952.49644 1321.32963,1950.90918 C1294.08851,1928.49704 1264.15985,1908.65628 1233.97675,1889.30756 C1242.50053,1903.60878 1261.63134,1913.71964 1277.61343,1925.19554 Z M1277.61343,1899.57714 C1292.41874,1909.64038 1308.46444,1929.2748 1321.32963,1925.19554 C1292.76859,1904.94208 1264.55741,1884.40292 1233.97675,1866.19703 C1241.0534,1881.43474 1262.09251,1889.03772 1277.61343,1899.57714 Z M1321.32963,1907.25949 C1299.01831,1879.11734 1262.41056,1865.10182 1233.97675,1843.0865 C1255.8746,1871.67308 1291.09882,1887.00603 1321.32963,1907.25949 Z M1277.61343,1850.80059 C1262.76042,1840.83259 1246.015,1821.86482 1233.97675,1825.16632 C1262.60139,1845.22931 1290.3514,1866.30814 1321.32963,1884.16483 C1314.3802,1868.80014 1293.26157,1861.29239 1277.61343,1850.80059 Z M490.992217,1807.19852 C477.331899,1820.72199 459.505105,1833.02327 442.139485,1845.67374 C429.433322,1854.99096 405.086469,1863.94312 408.744063,1881.56172 C435.301375,1866.22878 475.089635,1841.80082 498.704969,1814.89674 C492.55067,1815.88084 500.120299,1803.19862 490.992217,1807.19852 Z M1277.61343,1832.86454 C1291.98937,1842.78492 1309.67304,1858.53056 1321.32963,1855.92745 C1293.92948,1837.91203 1263.77819,1809.05562 1233.97675,1802.05579 C1247.63706,1809.92861 1262.29925,1822.24576 1277.61343,1832.86454 Z M447.323727,1820.02359 C432.423008,1831.49949 409.062115,1841.08655 406.167845,1863.62567 C419.064839,1856.9433 434.299512,1843.64204 452.412553,1830.29318 C469.094362,1817.96015 504.207263,1802.72244 493.568435,1784.10387 C479.621871,1797.24639 462.749231,1808.03977 447.323727,1820.02359 Z M167.104331,1832.86454 C150.788282,1845.72136 115.198303,1866.30814 110.538847,1881.56172 C99.9159222,1916.56084 111.381684,1968.06747 113.08326,2007.30458 C114.450882,2036.66891 112.16091,2063.62061 113.08326,2094.61983 C155.988426,2068.12844 196.826256,2039.49424 233.92698,2007.30458 C232.209501,1932.90963 237.361938,1851.67359 231.366664,1781.5325 C212.410787,1798.64318 193.439007,1812.11903 167.104331,1832.86454 Z M1321.32963,1837.95965 C1297.07819,1813.37297 1264.19165,1797.43686 1233.97675,1778.94527 C1258.00555,1803.61131 1289.763,1820.67437 1321.32963,1837.95965 Z M246.792169,2002.20947 C258.671398,1935.35401 248.573258,1846.59435 251.928703,1771.26292 C251.388015,1769.27884 249.750049,1768.29474 246.792169,1768.69156 C242.54618,1840.56276 242.498472,1930.33827 246.792169,2002.20947 Z M1326.43436,1789.26247 C1307.14453,1781.99281 1292.57776,1770.0566 1275.00541,1761.04096 C1287.66386,1772.10417 1313.80771,1802.94466 1326.43436,1789.26247 Z M447.323727,1799.48443 C432.947793,1810.57939 406.040624,1817.73794 406.167395,1843.0865 C419.001229,1835.89621 434.299512,1823.6108 452.412553,1809.76988 C469.460121,1796.77021 503.587062,1779.77064 493.568435,1761.04096 C477.9521,1772.73907 463.385335,1787.07205 447.323727,1799.48443 Z M1239.03377,1766.12019 C1253.05985,1770.46929 1266.3067,1782.84993 1280.18965,1791.83383 C1293.30928,1800.26219 1310.10241,1815.16657 1321.32963,1809.76988 C1291.09882,1792.86555 1265.44796,1771.45339 1233.97675,1755.88236 C1232.02073,1762.89805 1239.03377,1761.04096 1239.03377,1766.12019 Z M444.715704,1773.86603 C430.133036,1784.16736 405.499936,1795.75437 406.167845,1820.02359 C437.336906,1796.46863 474.055967,1778.29449 496.096946,1745.62865 C495.556258,1743.64457 496.049238,1740.53354 493.568435,1740.48592 C479.49465,1753.67606 461.190778,1762.19966 444.715704,1773.86603 Z M259.641455,1804.62716 C262.456212,1859.6099 255.252342,1943.32207 259.641455,1991.89227 C287.614097,1972.79751 313.121838,1951.25837 341.905511,1932.90963 C337.34147,1871.59372 340.044909,1803.10339 339.329293,1737.91456 C339.170267,1735.20034 336.021556,1735.89873 336.768977,1740.48592 C336.768977,1743.05728 336.768977,1745.62865 336.768977,1748.20001 C330.058088,1755.18396 321.375278,1760.24733 316.191036,1768.69156 C322.774705,1769.85026 327.990752,1772.34226 331.632443,1776.3739 C346.739896,1838.9755 323.697055,1895.45026 303.325848,1927.75103 C293.736591,1928.03674 296.026563,1930.68747 287.916246,1927.75103 C285.435443,1932.59218 295.613095,1936.35399 287.916246,1938.0841 C281.284869,1927.75103 265.970683,1889.97421 277.643178,1871.3715 C275.655355,1887.00603 282.286732,1894.0376 293.05278,1897.00578 C310.307081,1889.49803 305.758943,1874.27619 323.951496,1866.19703 C326.62313,1848.11812 311.515677,1847.80067 305.902066,1837.95965 C312.294904,1830.1027 321.486596,1841.03894 331.632443,1837.95965 C320.357513,1826.94405 303.866535,1821.16642 293.05278,1809.76988 C287.391461,1813.45233 296.312809,1816.0237 290.476561,1817.45223 C286.930286,1815.88084 290.063094,1807.57946 285.308222,1807.19852 C280.712376,1821.38864 280.537448,1840.05483 272.506644,1850.80059 C276.005212,1826.05519 280.998623,1802.83355 293.05278,1786.65936 C286.055644,1787.35775 272.077274,1801.05582 259.641455,1804.62716 Z M444.715704,1750.7555 C429.512835,1762.02506 404.529879,1772.53273 403.623432,1796.92894 C436.509971,1777.59609 464.116853,1753.00941 496.096946,1732.7877 C494.633908,1727.4545 499.341072,1715.91511 493.568435,1714.80403 C479.00167,1728.23226 461.111265,1738.58121 444.715704,1750.7555 Z M922.842732,1717.39127 C937.329984,1724.81965 953.280273,1735.04161 969.119245,1745.62865 C983.161225,1754.93 999.016099,1771.72323 1010.24332,1768.69156 C988.409077,1740.00974 949.924829,1728.04179 920.266513,1707.12168 C920.075682,1711.58189 920.854909,1715.12148 922.842732,1717.39127 Z M1287.8865,1737.91456 C1271.61816,1730.18459 1255.97002,1708.16928 1241.59408,1707.12168 C1256.28807,1716.48653 1275.06902,1735.26383 1287.8865,1737.91456 Z M334.192759,1701.97896 C313.296766,1725.62915 269.819108,1740.37481 262.169966,1768.69156 C285.833008,1745.21596 317.638171,1729.97825 339.329293,1704.55032 C338.7568,1702.56624 337.182445,1701.5504 334.192759,1701.97896 Z M488.415999,1696.8521 C473.944649,1709.72479 456.08605,1723.18477 439.595072,1735.35907 C426.427734,1745.04136 402.430738,1751.96182 403.623432,1773.86603 C420.082604,1763.59645 436.796218,1752.23166 452.412553,1740.48592 C467.265565,1729.3116 487.223305,1718.77218 493.568435,1699.42347 C492.98004,1697.43939 491.421587,1696.45529 488.415999,1696.8521 Z M1082.21841,1830.29318 C1112.65595,1857.24488 1152.3647,1874.89522 1190.24465,1894.43441 C1196.23992,1831.62648 1194.80869,1770.97721 1200.4541,1712.24854 C1180.92573,1712.91519 1163.70324,1697.69335 1154.19349,1696.8521 C1158.05782,1699.02665 1157.9306,1705.13761 1159.36183,1709.72479 C1148.89793,1707.12168 1133.9336,1713.23264 1141.37601,1719.96263 C1145.73332,1717.53412 1146.56025,1709.51845 1151.63318,1714.80403 C1148.59578,1727.23229 1141.43962,1727.37514 1136.19177,1732.7877 C1136.19177,1730.21634 1136.19177,1727.64498 1136.19177,1725.08948 C1125.36211,1733.05754 1102.01712,1728.51797 1097.67572,1743.05728 C1108.6485,1740.29545 1124.08991,1742.04144 1128.52673,1732.7877 C1130.67357,1735.74001 1131.86627,1739.67642 1131.08704,1745.62865 C1115.50251,1746.32704 1110.42959,1757.48549 1107.98059,1771.26292 C1112.3697,1776.26279 1122.92902,1775.13584 1128.52673,1778.94527 C1132.29564,1788.7228 1117.01326,1779.50081 1120.79807,1789.26247 C1143.25252,1803.72242 1175.05768,1802.48435 1174.77143,1768.69156 C1182.80224,1790.84973 1167.63118,1810.84922 1151.63318,1817.45223 C1152.66685,1820.53152 1155.56112,1826.21391 1159.36183,1832.86454 C1146.56025,1833.76928 1154.8614,1839.75325 1156.75381,1845.67374 C1149.2955,1848.57843 1150.67902,1858.5623 1149.08876,1861.0543 C1122.24521,1846.70546 1093.95451,1816.24591 1107.98059,1789.26247 C1103.57558,1779.3897 1098.39133,1786.2308 1092.50738,1778.94527 C1101.15838,1772.56448 1092.96855,1746.43815 1084.82643,1740.48592 C1084.82643,1769.54868 1084.82643,1798.64318 1084.82643,1827.73768 C1115.88417,1846.29277 1148.59578,1863.24472 1177.34765,1884.16483 C1142.66412,1869.2287 1115.39119,1846.78482 1082.21841,1830.29318 Z M1010.24332,1745.62865 C986.007787,1718.4706 948.875258,1704.26461 917.738003,1684.01116 C942.593738,1710.50255 977.484003,1727.02594 1010.24332,1745.62865 Z M753.162183,1684.01116 C651.942249,1758.39023 552.980481,1827.29325 429.306102,1917.49732 C353.371273,1972.87688 272.554352,2031.81189 192.818806,2089.44536 C166.643156,2108.30203 120.764207,2132.7776 115.691284,2148.49149 C99.3275267,2198.7918 130.862347,2279.80563 118.267502,2330.62974 C317.892613,2330.62974 517.533626,2330.62974 717.206445,2330.62974 C696.024206,2302.12253 654.613882,2293.83702 616.940666,2281.86907 C676.241394,2284.31345 715.727505,2306.4875 755.770206,2328.02663 C754.06863,2114.22251 759.221066,1893.57729 753.162183,1684.01116 Z M347.042045,1691.70938 C346.628578,1770.86611 346.851214,1849.27682 349.570556,1925.19554 C360.49563,1923.25908 364.582593,1914.4974 372.724715,1909.84672 C365.473138,1837.76918 371.21397,1741.12083 359.923137,1681.48741 C357.887606,1687.12219 350.858665,1687.89995 347.042045,1691.70938 Z M444.715704,1709.72479 C430.180744,1720.18485 403.718847,1726.24819 403.623432,1750.7555 C416.29779,1748.85079 428.415557,1733.91466 447.323727,1719.96263 C464.46671,1707.23279 501.710557,1693.7252 490.992217,1673.77332 C474.755681,1683.80481 460.761409,1698.10604 444.715704,1709.72479 Z M1010.24332,1722.51812 C982.779563,1697.78859 950.513224,1677.78909 917.738003,1658.39276 C940.764942,1685.88413 979.058359,1711.62951 1010.24332,1722.51812 Z M1084.82643,1707.12168 C1097.80294,1696.15371 1093.66827,1668.02743 1115.69334,1666.0751 C1104.00494,1665.74178 1103.06669,1654.67856 1089.97887,1655.82139 C1083.427,1668.1068 1091.18746,1694.62994 1084.82643,1707.12168 Z M370.148497,1678.8843 C364.709814,1698.72507 371.834171,1772.50098 375.300933,1814.89674 C377.749931,1844.64202 375.571277,1881.43474 383.029588,1904.68812 C388.436466,1898.16448 395.688043,1893.3392 403.623432,1889.30756 C400.28389,1802.48435 401.89005,1730.37506 393.302656,1655.82139 C389.13618,1663.7577 373.551649,1666.69413 370.148497,1678.8843 Z M442.139485,1686.61427 C426.825299,1697.69335 393.891052,1706.34393 406.167845,1730.21634 C433.79063,1707.3439 463.91012,1686.94759 493.568435,1666.0751 C492.025885,1660.7419 496.717146,1649.25013 490.992217,1648.1073 C476.266426,1658.13879 459.982182,1673.63047 442.139485,1686.61427 Z M748.073356,1650.67867 C546.714864,1794.19885 337.850353,1945.54423 138.813638,2089.44536 C124.342288,2099.87367 106.690422,2107.9687 113.08326,2130.49194 C143.584412,2120.2541 166.48413,2095.28648 192.818806,2076.57267 C356.011102,1960.67083 513.017293,1845.07058 676.050563,1727.64498 C705.16819,1706.72487 767.697142,1683.34451 753.162183,1645.55181 C753.162183,1648.93268 748.693557,1647.91683 748.073356,1650.67867 Z M773.756026,1668.64647 C988.297759,1811.5 1209.40726,1965.60722 1421.5636,2107.38141 C1435.89183,2116.98435 1454.64097,2131.57128 1465.2798,2127.92058 C1468.28539,2106.9846 1444.00215,2097.81023 1431.85257,2089.44536 C1213.31929,1938.65552 993.450195,1788.99263 778.89256,1637.83772 C776.36405,1637.83772 773.756026,1637.83772 771.179808,1637.83772 C770.162043,1650.01202 772.038547,1659.23401 773.756026,1668.64647 Z M920.266513,1645.55181 C934.833278,1651.96435 948.748038,1666.17034 963.998614,1676.36056 C977.976983,1685.7254 999.572689,1701.78849 1007.6671,1699.42347 C984.497042,1671.24957 948.63672,1655.78965 917.738003,1635.28223 C917.531269,1639.75831 918.246885,1643.26615 920.266513,1645.55181 Z M488.415999,1624.99677 C475.05783,1640.96463 454.066422,1650.63105 437.018854,1663.51961 C423.342633,1673.82094 403.718847,1685.7254 401.015408,1704.55032 C417.156529,1699.83615 432.820572,1683.80481 449.884043,1671.21783 C465.32545,1659.78955 492.1213,1650.61518 493.568435,1627.56814 C492.98004,1625.58406 491.421587,1624.58409 488.415999,1624.99677 Z M1200.4541,1684.01116 C1164.75281,1664.13864 1127.06369,1632.47278 1092.50738,1619.91754 C1129.41727,1638.67897 1165.45252,1671.94797 1200.4541,1684.01116 Z M1007.6671,1678.8843 C985.308073,1649.0914 947.237292,1634.88541 917.738003,1612.21932 C940.065228,1642.07571 977.436295,1656.94835 1007.6671,1678.8843 Z M488.415999,1604.50523 C464.95969,1627.56814 437.336906,1648.34539 411.304379,1668.64647 C405.961111,1672.77335 395.290479,1668.42425 401.015408,1681.48741 C432.232177,1657.02771 469.682757,1638.85357 493.568435,1607.07659 C492.98004,1605.06077 491.421587,1604.04492 488.415999,1604.50523 Z M966.558929,1630.17125 C981.205207,1640.37734 998.602632,1654.75793 1007.6671,1653.25003 C983.606497,1625.94913 947.698467,1610.45746 917.738003,1589.10879 C928.997031,1605.48933 948.557207,1617.58426 966.558929,1630.17125 Z M403.623432,1655.82139 C427.318279,1636.02824 455.847511,1606.3782 480.719149,1591.68016 C484.7266,1589.25165 493.806974,1593.10869 490.992217,1583.98194 C465.866137,1599.94979 419.573722,1630.74266 403.623432,1655.82139 Z M1007.6671,1635.28223 C1004.47068,1614.6637 980.950766,1608.47338 966.558929,1599.37837 C950.036147,1588.88658 934.10176,1577.63289 917.738003,1568.56963 C941.082993,1597.3943 977.817957,1612.94946 1007.6671,1635.28223 Z M498.704969,1658.39276 C501.249382,1716.16907 497.830327,1766.54875 501.281187,1814.89674 C506.815286,1816.05544 522.049959,1804.92874 526.963857,1796.92894 C521.12761,1720.66102 526.773026,1632.90134 519.28291,1558.30005 C486.014709,1571.45844 496.574023,1610.15588 498.704969,1658.39276 Z M1007.6671,1612.21932 C987.13687,1583.10894 944.199899,1562.64914 917.738003,1548.04634 C947.889298,1569.22041 976.386725,1592.14046 1007.6671,1612.21932 Z M1012.81954,1565.99827 C1006.12455,1553.87159 985.689735,1541.85602 974.255779,1542.90361 C990.985295,1546.74478 992.973118,1565.29987 1012.81954,1565.99827 Z M1007.6671,1589.10879 C1006.18816,1584.60097 1010.7522,1574.01394 1005.09089,1573.71236 C984.497042,1578.52176 945.837865,1534.91969 917.738003,1524.96756 C941.782707,1552.23671 977.674834,1567.71251 1007.6671,1589.10879 Z M544.981483,1722.51812 C543.884204,1719.86739 542.548388,1718.3595 539.813143,1717.39127 C536.584919,1729.21636 544.504405,1729.8354 547.541798,1735.35907 C543.995522,1735.42256 541.896382,1734.15275 539.813143,1732.7877 C537.20512,1743.94615 545.156411,1744.56518 547.541798,1750.7555 C531.718729,1750.34281 543.454835,1777.48499 539.813143,1789.26247 C579.013008,1765.96147 610.277484,1734.67654 650.367893,1712.24854 C646.249124,1643.67884 652.005859,1565.20463 642.655141,1501.85703 C634.21087,1508.63463 618.228775,1507.71402 606.651695,1522.39619 C636.73938,1516.22174 630.39425,1554.66522 632.382073,1568.56963 C632.970468,1566.58555 632.413878,1563.52214 634.958291,1563.4269 C641.080785,1598.39427 622.824621,1631.42518 632.382073,1653.25003 C625.353132,1653.01194 627.181929,1657.51976 622.093102,1653.25003 C622.586082,1692.93157 615.85929,1724.26411 583.545244,1750.7555 C582.622894,1729.91476 574.083207,1711.78823 583.545244,1694.28074 C564.875613,1692.10619 554.443519,1655.34521 565.511716,1640.40908 C552.487501,1673.0908 596.998828,1689.13801 606.651695,1658.39276 C601.038084,1658.85306 598.477768,1656.2817 598.986651,1650.67867 C608.671323,1651.82149 611.024905,1645.6153 616.940666,1642.98045 C617.529061,1624.42536 611.804132,1612.21932 598.986651,1607.07659 C602.501121,1601.20372 592.355274,1597.44192 598.986651,1596.82288 C605.888371,1605.28299 612.678774,1603.23542 627.261441,1607.07659 C626.752559,1589.58497 601.308428,1597.01335 596.410433,1583.98194 C591.941807,1585.48984 596.569458,1596.15623 591.257996,1596.82288 C588.952122,1587.98184 585.564872,1580.236 580.969025,1573.71236 C585.819313,1573.14094 586.66215,1576.56943 591.257996,1576.26785 C592.005417,1569.50611 587.679915,1567.83949 580.969025,1568.56963 C576.039225,1569.58548 580.746389,1580.33124 570.695958,1576.26785 C571.347963,1564.09355 578.551833,1558.47465 580.969025,1548.04634 C569.010284,1553.20494 563.44438,1564.7602 547.541798,1565.99827 C540.067585,1562.34756 543.645666,1547.64952 534.724317,1545.4591 C543.48664,1597.28319 534.056409,1696.07434 544.981483,1722.51812 Z M143.950172,1507.01563 C148.816362,1509.84095 152.951033,1513.38055 159.375676,1514.69797 C165.275534,1503.50778 184.628976,1505.68233 182.49803,1486.47646 C171.604762,1485.03206 152.362637,1497.36508 143.950172,1507.01563 Z M634.958291,1481.33374 C648.74583,1485.73045 645.008723,1472.50856 645.199554,1463.36594 C635.880641,1463.47705 633.956428,1470.90543 634.958291,1481.33374 Z M1254.50698,1388.95512 C1257.0832,1385.52663 1261.3928,1383.90763 1262.17202,1378.73315 C1258.912,1378.57443 1258.62575,1375.43165 1254.50698,1376.11417 C1257.89423,1382.49496 1246.93735,1386.78057 1254.50698,1388.95512 Z M699.157014,1419.76386 C685.178645,1430.5255 654.279928,1447.38221 650.367893,1460.82632 C646.917033,1472.63554 652.435229,1487.31771 652.944111,1499.30154 C655.568037,1560.91903 652.101274,1636.56791 655.488524,1704.55032 C675.239531,1696.42354 689.186095,1681.48741 706.917474,1668.64647 C719.591832,1659.47209 750.713185,1646.04386 755.770206,1630.17125 C765.534391,1599.42599 755.770206,1548.14157 755.770206,1504.42839 C755.770206,1457.09625 757.726224,1402.22462 753.162183,1376.11417 C736.734815,1388.87576 722.199856,1402.14526 699.157014,1419.76386 Z M118.267502,1368.41595 C121.543434,1375.1142 123.578964,1376.46337 131.084983,1373.55868 C131.084983,1368.41595 131.084983,1363.32085 131.084983,1358.19399 C124.962489,1359.74951 119.110339,1361.6066 118.267502,1368.41595 Z M231.366664,1373.55868 C242.705205,1382.11402 257.494607,1361.1463 249.352485,1350.49577 C245.806209,1360.63837 229.999042,1358.54319 231.366664,1373.55868 Z M100.265779,1350.49577 C103.700737,1401.79606 100.981395,1459.28668 105.370508,1509.57112 C93.8252334,1516.84078 90.1040292,1531.93563 82.2640563,1542.90361 C91.2967228,1549.23678 101.474375,1526.28498 110.538847,1532.68165 C107.517356,1542.47505 91.7260925,1539.55449 95.1133425,1555.74456 C97.9280995,1562.47454 107.676382,1541.26873 113.08326,1550.64945 C108.805466,1558.03021 95.2723683,1559.04606 102.810192,1571.15686 C110.538847,1568.26805 118.744579,1559.04606 120.796012,1550.64945 C130.305756,1512.22185 110.12538,1447.95363 115.691284,1401.79606 C120.605181,1395.55813 134.02696,1397.87553 133.693006,1386.38375 C125.360053,1380.16169 113.321799,1377.6062 113.08326,1363.32085 C115.54816,1352.90841 131.99143,1356.47975 131.084983,1342.78168 C121.066356,1335.48028 112.622085,1351.62273 100.265779,1350.49577 Z M233.92698,1355.62263 C235.803485,1351.30528 247.523688,1343.84515 239.063514,1337.65483 C237.202912,1341.97218 225.435001,1349.44818 233.92698,1355.62263 Z M748.073356,1332.5121 C556.590367,1478.09572 361.942765,1635.66317 172.240865,1781.5325 C147.560058,1800.50028 97.3078988,1818.69029 110.538847,1863.62567 C289.331576,1728.97827 490.769581,1572.64889 676.050563,1427.46208 C696.596699,1411.399 750.68138,1378.09825 755.770206,1360.76535 C758.712184,1350.76561 755.817914,1339.01987 753.162183,1327.38525 C753.162183,1330.81373 748.693557,1329.76614 748.073356,1332.5121 Z M776.36405,1360.76535 C1007.71481,1524.07869 1234.2789,1692.2173 1467.88782,1853.4037 C1467.88782,1841.41988 1467.88782,1829.43605 1467.88782,1817.45223 C1238.09552,1648.15492 1006.3949,1480.90518 773.756026,1314.56017 C772.452014,1332.13116 778.304165,1342.51185 776.36405,1360.76535 Z M167.104331,1314.56017 C156.719945,1350.36879 181.178116,1429.52552 172.240865,1463.36594 C170.141724,1471.33399 155.050174,1467.88963 161.951894,1478.76237 C171.954618,1479.38141 175.262355,1473.25458 182.49803,1471.06416 C176.995737,1420.14481 178.522385,1362.16214 172.240865,1312.02055 C179.444734,1302.87793 200.467948,1294.05275 197.95534,1283.78317 C191.292158,1297.67171 172.447598,1296.14794 167.104331,1314.56017 Z M190.210782,1181.10323 C168.630979,1200.19798 147.925817,1220.62604 123.419938,1242.72072 C106.229247,1258.19652 62.0677773,1286.7831 56.5495813,1306.84608 C53.1941365,1319.29021 58.616917,1333.65493 59.1576048,1345.35305 C61.8133359,1404.39917 60.0799545,1472.63554 69.3988675,1532.68165 C120.446155,1515.71382 90.756035,1400.57387 92.5530268,1342.78168 C109.584692,1334.97236 117.965353,1318.56007 138.813638,1314.56017 C138.33656,1368.89213 141.071804,1420.0337 143.950172,1471.06416 C163.510347,1471.01654 159.486994,1443.60453 159.375676,1417.1925 C159.184845,1380.82834 160.07539,1337.35325 156.799458,1309.41745 C169.394303,1292.84644 194.059207,1288.44972 200.515655,1265.81537 C192.564365,1260.56154 184.120094,1290.35443 172.240865,1281.21181 C181.543875,1268.30737 187.602759,1252.05381 205.636287,1247.87932 C211.520242,1274.49769 206.606344,1311.8777 208.260213,1342.78168 C222.047751,1342.8293 226.134715,1333.30573 236.487296,1329.90899 C224.369528,1256.51402 233.974688,1161.42118 223.63801,1086.20086 C213.96924,1119.34288 201.231272,1149.40561 190.210782,1181.10323 Z M673.537955,1083.6295 C684.796983,1080.32799 689.694978,1070.67744 696.644406,1063.10621 C687.818473,1067.91561 669.19655,1073.9472 673.537955,1083.6295 Z M293.05278,1075.93128 C305.790748,1066.43946 327.370552,1065.70932 326.464104,1042.59879 C313.805649,1052.16998 294.563525,1055.20164 293.05278,1075.93128 Z M668.33777,1068.23306 C682.014031,1060.53484 701.860453,1058.93171 699.157014,1034.90057 C687.039247,1044.10669 668.306005,1046.72567 668.33777,1068.23306 Z M658.096548,1047.74152 C670.834516,1042.45594 681.012168,1034.66248 688.868044,1024.63099 C676.845692,1021.01203 658.096548,1030.93242 658.096548,1047.74152 Z M244.168243,1029.77372 C255.045609,1025.17066 271.647904,1026.34523 269.89862,1009.2663 C257.892171,1012.64716 248.541453,1018.64701 244.168243,1029.77372 Z M1455.02264,1091.29597 C1428.84699,1058.42379 1405.96317,1008.52028 1380.40772,983.568534 C1397.70973,1025.377 1430.24641,1065.55059 1455.02264,1091.29597 Z M1023.10851,988.695388 C1031.83903,984.568509 1032.45923,972.394213 1038.50221,965.632479 C1027.73616,967.695919 1023.49017,976.251258 1023.10851,988.695388 Z M444.715704,965.632479 C438.943066,975.695717 421.815986,978.187717 416.409108,983.568534 C350.445198,1049.43989 275.544037,1191.02361 287.916246,1327.38525 C291.255788,1364.06686 301.92642,1402.38335 321.32757,1422.33523 C380.94635,1483.79399 455.688485,1374.25708 480.719149,1332.5121 C534.056409,1243.60958 571.475184,1095.42285 521.811421,986.124025 C502.760128,969.172072 479.033475,953.6804 444.715704,965.632479 Z M1233.97675,1119.5651 C1237.23678,1105.10515 1222.89265,1108.32729 1226.20038,1093.89908 C1219.93477,1095.34349 1213.00124,1096.0895 1213.3511,1104.16866 C1227.13864,1102.42267 1221.01614,1120.43809 1233.97675,1119.5651 Z M1102.81225,970.759334 C1073.69462,971.616455 1050.31783,978.187717 1041.11023,998.96497 C1033.28616,987.91763 1027.38631,1005.88543 1023.10851,991.250879 C1019.41911,996.933276 1016.68387,1003.63152 1017.95607,1014.36141 C1027.16367,1018.32956 1019.51453,1005.64734 1025.71653,1006.66319 C1025.71653,1012.64716 1025.71653,1018.64701 1025.71653,1024.63099 C1021.66138,1024.86908 1016.81109,1024.28179 1017.95607,1029.77372 C1026.65479,1036.96401 1007.6353,1057.6619 1023.10851,1068.23306 C1020.07112,1067.88386 1017.27226,1063.64588 1015.39576,1068.23306 C1021.77269,1068.66162 1016.12728,1076.94713 1015.39576,1078.50264 C1021.8204,1078.18519 1023.41066,1073.64562 1025.71653,1081.07401 C1020.58,1085.34374 1022.4088,1080.83592 1015.39576,1081.07401 C1015.93645,1093.74035 1026.20951,1081.69304 1025.71653,1096.47044 C1023.10851,1096.47044 1020.58,1096.47044 1017.95607,1096.47044 C1025.43029,1109.89868 1022.4088,1120.5492 1030.86897,1129.83468 C1029.10378,1134.89804 1015.49117,1128.24742 1017.95607,1137.50115 C1017.479,1144.77081 1033.82685,1135.40597 1033.38158,1142.67563 C1033.95407,1151.73889 1021.35923,1147.73899 1023.10851,1158.04032 C1026.1459,1160.99262 1032.17298,1160.96088 1038.50221,1160.61168 C1029.04017,1167.88134 1038.75665,1172.23043 1043.68645,1178.57948 C1038.39089,1181.02386 1031.48917,1181.76988 1030.86897,1188.84906 C1032.61825,1193.89655 1045.16539,1188.23003 1046.24677,1193.97592 C1044.09992,1202.95982 1040.17198,1210.11837 1035.9737,1217.03883 C1039.34505,1217.03883 1042.82771,1217.03883 1046.24677,1217.03883 C1046.83516,1212.531 1043.63874,1204.19788 1051.3515,1206.81686 C1050.06339,1217.54675 1051.16067,1225.83226 1059.11196,1227.30841 C1063.89863,1238.94304 1048.85479,1230.81626 1051.3515,1240.14935 C1059.04835,1240.22872 1067.06325,1239.91126 1066.84061,1247.87932 C1062.92858,1251.43478 1055.75651,1257.3394 1061.65637,1263.24401 C1069.97342,1266.40266 1063.676,1254.92676 1071.92944,1258.11715 C1067.61984,1271.79935 1079.65809,1269.24386 1079.65809,1278.65632 C1072.9154,1277.98967 1071.27743,1273.35486 1071.92944,1283.78317 C1073.58331,1286.27517 1085.8442,1282.65622 1087.37084,1291.44965 C1085.06497,1296.03683 1080.19878,1297.98916 1082.21841,1306.84608 C1091.9985,1310.62376 1082.775,1295.38605 1092.50738,1299.14786 C1102.71684,1302.92555 1088.64305,1321.2108 1100.23603,1324.82975 C1100.56999,1320.06797 1101.93761,1316.25854 1105.42027,1314.56017 C1102.06483,1327.65508 1112.87859,1317.27439 1113.08532,1322.25839 C1116.90194,1333.73429 1105.5634,1330.14708 1107.98059,1340.22619 C1117.52214,1342.94041 1116.18632,1334.81363 1120.79807,1332.5121 C1124.74191,1343.57531 1115.88417,1352.32112 1125.9187,1358.19399 C1126.95237,1351.464 1127.27042,1344.11498 1131.08704,1340.22619 C1133.07486,1340.7976 1136.14406,1340.25794 1136.19177,1342.78168 C1138.02057,1349.6704 1130.88031,1347.71806 1128.52673,1350.49577 C1129.30595,1358.24161 1136.43031,1359.62253 1133.64736,1370.98732 C1147.88017,1367.09853 1142.85495,1382.38386 1154.19349,1381.30452 C1159.1869,1378.52681 1157.81928,1369.47942 1161.90625,1365.89221 C1161.90625,1373.55868 1161.90625,1381.30452 1161.90625,1388.95512 C1171.70224,1392.68518 1166.85195,1381.92355 1174.77143,1383.82826 C1174.31026,1391.17728 1174.46929,1397.87553 1182.51599,1396.70095 C1182.91356,1392.79629 1181.59364,1387.20913 1185.09221,1386.38375 C1188.0978,1390.19318 1187.35038,1397.87553 1195.34938,1396.70095 C1199.59536,1396.65334 1196.79651,1389.54241 1200.4541,1388.95512 C1203.06213,1392.3836 1202.96671,1398.54218 1208.21456,1399.2247 C1208.59623,1395.36765 1207.26041,1389.78049 1210.74307,1388.95512 C1215.30712,1391.25665 1214.0031,1399.36755 1223.62417,1396.70095 C1226.35941,1390.12969 1212.57187,1387.66944 1221.01614,1383.82826 C1230.82804,1383.36796 1222.0021,1385.92345 1223.62417,1391.55823 C1238.90655,1392.54233 1222.30425,1377.71731 1233.97675,1376.11417 C1236.64838,1378.52681 1234.75597,1385.606 1241.59408,1383.82826 C1238.87474,1374.25708 1251.31056,1379.78075 1249.32274,1370.98732 C1244.87002,1370.01909 1242.72317,1374.79675 1241.59408,1370.98732 C1248.41629,1369.24133 1244.48835,1356.7972 1254.50698,1358.19399 C1253.26658,1342.4801 1258.3236,1334.81363 1269.85297,1327.38525 C1268.59667,1320.97271 1263.11028,1318.82991 1262.17202,1312.02055 C1276.00727,1306.81434 1264.55741,1300.54465 1264.78005,1288.87828 C1272.27016,1291.83059 1274.28979,1290.40205 1277.61343,1283.78317 C1271.22059,1284.14824 1265.14581,1284.24348 1264.78005,1278.65632 C1266.9269,1273.05328 1274.44882,1272.94218 1275.00541,1265.81537 C1271.98392,1260.33932 1261.09065,1262.59323 1264.78005,1250.38719 C1269.26458,1249.83165 1277.61343,1252.9903 1275.00541,1245.27621 C1260.10469,1241.11758 1263.20569,1235.43519 1269.85297,1224.73704 C1263.15798,1210.70565 1255.90641,1190.2776 1259.59581,1173.43675 C1250.11787,1171.73838 1244.90182,1151.62778 1257.0832,1150.3421 C1242.914,1149.88179 1237.79337,1132.3743 1249.32274,1127.27919 C1238.90655,1130.80291 1241.18062,1121.7079 1233.97675,1122.15233 C1226.97961,1128.40614 1239.2246,1140.53282 1231.32102,1147.77074 C1249.24323,1143.64386 1241.7213,1164.80205 1246.73062,1173.43675 C1242.914,1172.97645 1237.26858,1174.34149 1236.45755,1170.83364 C1237.85698,1152.8341 1221.54093,1140.58044 1221.01614,1111.86688 C1197.00324,1075.93128 1175.08949,1038.05922 1151.63318,1001.52046 C1163.89407,1002.23473 1166.62931,1008.5679 1172.24292,1016.93277 C1192.20066,1046.9955 1198.5776,1058.55077 1210.74307,1086.20086 C1216.70654,1085.39136 1220.68219,1086.62942 1223.62417,1088.80397 C1216.08634,1053.53502 1186.8892,1039.96393 1179.95568,1004.09182 C1151.7445,990.362013 1136.14406,963.9976 1105.42027,952.791534 C1104.80007,954.77561 1105.26125,957.854898 1102.81225,957.886643 C1078.43359,942.141009 1041.90536,962.632555 1033.38158,991.250879 C1052.79863,990.171542 1051.74906,971.108531 1069.40093,965.632479 C1106.34262,954.188324 1128.78117,982.044763 1151.63318,996.393607 C1151.63318,998.139594 1151.63318,999.806219 1151.63318,1001.52046 C1131.86627,994.758727 1119.39864,980.711463 1102.81225,970.759334 Z M750.649575,965.632479 C758.664476,966.79118 758.823502,960.140554 758.346424,952.791534 C749.313758,953.918489 747.453156,958.156477 750.649575,965.632479 Z M1056.50393,947.617061 C1057.31496,941.633085 1068.70121,946.140908 1066.84061,937.395097 C1059.50952,935.490383 1048.63215,942.871149 1056.50393,947.617061 Z M377.877152,955.362897 C401.603804,941.442614 429.814984,918.220978 439.595072,898.888133 C421.323006,920.046329 394.670278,932.760294 377.877152,955.362897 Z M493.568435,906.618097 C496.574023,907.046657 496.335484,910.633868 496.096946,914.28457 C508.850816,915.030583 511.45884,905.697485 521.811421,904.014988 C520.26887,897.872286 525.103255,885.380538 519.28291,883.523442 C512.397092,892.904158 496.335484,893.094629 493.568435,906.618097 Z M375.300933,945.093315 C392.746066,927.014407 446.735331,903.443574 439.595072,875.825224 C423.183608,902.729306 375.809816,910.633868 375.300933,945.093315 Z M490.992217,896.348515 C504.207263,893.316846 511.108983,883.904385 521.811421,878.34897 C520.475604,874.65065 524.864716,865.127081 519.28291,865.555642 C512.858267,878.856893 492.200813,877.888664 490.992217,896.348515 Z M311.0386,845.016478 C314.012383,902.776924 304.804788,972.743411 316.191036,1022.02788 C308.048914,1036.99576 288.456934,1040.58297 282.747907,1057.96348 C298.268827,1058.4714 315.284589,1039.45601 326.464104,1027.20235 C325.350924,979.60038 329.072128,927.077897 323.951496,883.523442 C330.01038,871.650726 350.317977,873.999873 347.042045,852.714697 C341.253506,846.270415 330.725996,870.492025 323.951496,862.936661 C328.388317,849.571919 348.727719,851.857575 347.042045,832.175533 C335.24233,826.382028 323.060952,858.238367 311.0386,845.016478 Z M686.339533,819.382205 C686.339533,849.794135 686.339533,886.983672 686.339533,921.982788 C686.339533,955.632732 677.354574,995.996791 699.157014,1011.79004 C699.157014,960.489752 699.157014,909.157715 699.157014,857.857424 C706.106443,841.635611 732.091261,844.508555 730.023926,819.382205 C720.991259,814.636293 706.265468,839.953114 694.068188,832.175533 C699.952143,817.906052 723.599283,815.112472 730.023926,809.080878 C728.163324,803.239756 734.651577,789.081383 724.9351,791.144823 C714.28037,802.700087 699.25243,810.00149 686.339533,819.382205 Z M334.192759,760.351951 C322.80651,797.366888 341.15809,762.018575 336.768977,757.764714 C336.609952,759.367848 336.371413,760.844002 334.192759,760.351951 Z M475.55081,868.079388 C485.807975,859.524048 494.936057,849.841753 506.433624,842.445115 C512.365287,819.921874 494.936057,786.716364 511.52245,778.303878 C514.655259,798.350991 512.079041,823.969391 516.706692,842.445115 C508.548667,855.016226 482.627459,859.984354 488.415999,878.34897 C511.411132,869.714267 528.601823,855.206697 521.811421,816.810842 C533.547526,811.366535 550.960853,811.636369 552.678332,796.287551 C544.981483,788.113154 533.165864,818.366358 526.963857,803.985769 C528.919875,790.478174 547.971168,794.144748 542.389362,773.177023 C538.032054,767.335901 525.9938,789.049638 519.28291,780.891114 C523.115432,767.621608 540.433344,767.81208 544.981483,755.209223 C519.314715,740.62229 497.273737,722.416401 470.430178,709.004041 C469.555536,754.46321 466.486338,824.096372 475.55081,868.079388 Z M359.923137,688.496623 C360.877292,697.797975 345.849352,723.114796 357.346918,711.60715 C356.281445,702.575632 368.558239,683.369768 362.435745,685.941132 C362.324427,687.496648 362.069985,689.004547 359.923137,688.496623 Z M370.148497,660.306859 C358.762248,697.337669 377.177438,661.941738 372.724715,657.735495 C372.6293,659.291011 372.343053,660.767165 370.148497,660.306859 Z M927.979266,714.130896 C958.464515,704.98827 997.855211,669.528848 1017.95607,649.989659 C990.444607,673.830327 949.209213,684.036418 927.979266,714.130896 Z M262.169966,1368.41595 C242.816523,1384.82824 221.30033,1388.25672 203.107776,1383.82826 C198.034853,1361.46375 201.501616,1330.655 200.515655,1304.29059 C171.111782,1320.89335 188.095739,1380.36803 190.210782,1427.46208 C191.642015,1458.58828 191.991872,1483.54003 192.818806,1509.57112 C174.435421,1518.60264 165.0688,1536.6498 141.389856,1540.33225 C128.015784,1498.95234 142.344011,1442.42996 128.556472,1399.2247 C118.37882,1406.68483 123.24501,1423.09711 123.419938,1437.71579 C123.769795,1477.98462 126.489137,1520.30101 125.948449,1555.74456 C99.4070396,1571.98224 106.197442,1606.21947 107.978531,1645.55181 C110.507042,1701.75674 106.038416,1766.99319 107.978531,1817.45223 C326.941182,1653.71034 538.445521,1482.54006 755.770206,1317.16328 C755.706596,1216.10234 755.817914,1101.80364 755.770206,1009.2663 C723.631088,982.203489 731.741405,909.268824 730.023926,842.445115 C725.587105,841.556248 710.765899,852.175028 706.917474,860.412915 C707.537675,928.950866 705.16819,1019.64699 709.493693,1068.23306 C696.278647,1074.69322 693.511598,1091.64517 676.050563,1093.89908 C669.562309,1085.07391 656.760731,1082.39143 650.367893,1073.35992 C652.101274,1027.20235 645.931073,988.854115 647.807577,942.490207 C643.275341,932.442841 636.946114,955.124808 632.382073,945.093315 C631.904995,933.538052 648.31646,938.760142 645.199554,924.554152 C640.078922,919.220953 630.473763,944.934589 622.093102,929.728624 C624.430782,913.189359 647.45772,917.363857 645.199554,896.348515 C636.469036,891.920055 630.855425,912.729054 616.940666,911.681461 C623.731068,894.570782 649.525056,896.348515 645.199554,868.079388 C603.375763,879.396562 607.399117,936.37925 609.243816,991.250879 C596.283212,998.96497 582.177622,1018.96447 568.119739,1016.93277 C577.120601,1007.94887 587.473181,1000.36176 598.986651,993.838116 C593.373039,966.918161 597.841665,929.966713 596.410433,898.888133 C614.332642,883.444079 623.98551,859.762138 650.367893,852.714697 C657.190101,907.443473 651.163022,975.076685 660.672766,1027.20235 C665.634372,1021.94852 672.790533,1018.80574 678.626781,1014.36141 C678.626781,947.617061 678.626781,880.952079 678.626781,814.255351 C700.365611,804.287349 712.753722,785.002121 737.800288,778.303878 C743.04814,834.635788 725.396274,913.824264 750.649575,950.22017 C764.198574,934.98246 758.346424,909.078352 758.346424,888.666169 C758.346424,817.826689 758.346424,743.034928 758.346424,675.67155 C712.721917,709.702436 669.435089,768.24064 619.516884,806.557132 C600.465591,793.017792 582.066304,778.970528 560.406987,768.034296 C561.186214,846.810084 569.407848,931.823809 563.01501,1009.2663 C549.211569,946.839303 563.396672,872.238013 550.118017,809.080878 C525.691651,821.493263 541.928187,874.460179 537.252828,906.618097 C509.709556,904.681638 492.789209,927.157261 480.719149,942.490207 C458.853099,908.998989 463.528458,860.571641 462.701524,809.080878 C462.542498,798.382736 469.253387,776.938833 454.988771,773.177023 C449.025303,815.953721 454.130032,869.79363 452.412553,916.855933 C418.667274,928.474688 403.353088,958.505675 372.724715,973.330697 C367.079299,958.47393 361.736031,943.267965 359.923137,924.554152 C392.634748,908.491065 417.220139,884.332946 442.139485,860.412915 C442.139485,828.794666 442.139485,797.128799 442.139485,765.478805 C446.608111,759.209122 463.385335,773.018297 462.701524,757.764714 C460.681896,751.272815 453.700662,765.018499 449.884043,757.764714 C450.981321,749.447464 466.613559,755.717147 462.701524,742.368278 C455.497654,733.70183 444.779314,756.796485 437.018854,747.54275 C447.276019,738.955666 466.868,739.685806 462.701524,716.734005 C446.862552,723.543357 439.738195,725.336962 424.169568,729.543205 C424.328593,755.098115 423.931029,788.57346 424.169568,814.255351 C424.249081,825.112219 434.458538,842.143535 419.033034,845.016478 C413.069565,807.366636 421.943206,754.860026 411.304379,721.876732 C424.249081,711.686513 441.423869,705.7819 452.412553,693.63935 C425.887047,681.655526 407.853519,661.16398 380.45337,649.989659 C363.310387,709.861163 338.62958,762.177301 321.32757,821.953569 C334.033733,820.0806 333.652071,805.112725 349.570556,806.557132 C362.833309,826.699481 346.342332,876.476001 359.923137,896.348515 C384.142769,883.444079 410.413834,846.30216 437.018854,852.714697 C424.249081,876.872817 389.183887,900.665866 359.923137,916.855933 C347.376,909.665639 349.109381,888.301099 344.434022,873.25386 C325.509949,891.761329 335.321842,927.204878 336.768977,957.886643 C338.550067,996.90153 333.302215,1039.75759 339.329293,1073.35992 C374.871564,1018.17083 400.856383,953.521674 493.568435,955.362897 C506.894799,962.553192 515.847952,974.187818 526.963857,983.568534 C566.354553,1040.47186 551.469736,1134.77106 537.252828,1201.67414 C514.512136,1308.79841 461.111265,1402.84366 388.15022,1442.87439 C317.097484,1462.55643 287.423266,1393.38358 280.187591,1347.92441 C265.414092,1255.51404 303.675704,1140.50108 334.192759,1081.07401 C315.761667,1084.53424 313.392182,1107.27969 287.916246,1096.47044 C283.765672,1081.7724 278.072548,1068.66162 269.89862,1057.96348 C283.44762,1048.39229 292.384871,1034.23392 305.902066,1024.63099 C303.182724,979.394036 299.938598,921.252648 303.325848,878.34897 C281.777849,915.030583 271.457073,962.870644 254.504921,1004.09182 C259.18028,1010.71071 268.642316,991.108026 275.06696,998.96497 C276.863951,1013.39318 278.358794,1028.17058 280.187591,1042.59879 C271.409366,1047.50343 263.823834,1053.56677 257.081139,1060.56659 C250.79962,1053.10646 250.561081,1039.67823 241.639732,1034.90057 C221.459356,1115.13664 237.695892,1235.67328 241.639732,1324.82975 C257.192457,1315.29031 249.909075,1297.16379 249.352485,1281.21181 C246.983,1212.34053 244.899762,1117.97784 249.352485,1057.96348 C264.04647,1151.07224 256.874406,1266.00584 262.169966,1368.41595 Z M326.464104,1063.10621 C314.85522,1069.51874 301.210804,1073.83609 295.613095,1086.20086 C295.772121,1089.47062 298.920832,1089.74045 298.173411,1093.89908 C316.843042,1092.85149 327.958947,1084.2644 326.464104,1063.10621 Z M192.818806,1111.86688 C185.88528,1130.92989 166.54774,1154.61183 179.953617,1176.00812 C242.291738,997.060257 314.632583,814.366459 370.148497,637.196331 C366.872565,637.037605 366.618124,633.894828 362.435745,634.64084 C304.979716,786.748109 248.970823,957.775535 192.818806,1111.86688 Z M938.284139,693.63935 C955.999615,687.337922 966.829273,674.227142 984.528847,667.973332 C954.441162,639.0693 917.531269,616.831767 884.294873,590.99115 C900.054332,627.514036 921.331986,658.402145 938.284139,693.63935 Z M532.116294,655.132386 C556.653978,666.608287 575.419024,683.750711 601.546966,693.63935 C620.296111,650.815035 652.880501,608.022465 665.761592,567.92824 C622.617888,598.387788 572.06358,621.450698 532.116294,655.132386 Z M1061.65637,649.989659 C1028.16553,675.893767 970.486867,725.178236 930.555484,739.844532 C914.923246,712.972195 874.435272,679.909538 845.731112,655.132386 C816.677095,630.053655 790.008465,603.594006 763.467056,590.99115 C706.996987,632.386929 657.317321,693.369516 604.075477,729.543205 C524.705691,677.100085 447.276019,622.688761 367.619986,570.467858 C317.351925,696.829746 267.242889,832.46124 215.925257,960.489752 C198.496028,1003.9331 185.169664,1053.10646 164.528113,1091.29597 C147.385129,1123.0412 121.654752,1151.65953 102.810192,1181.10323 C82.7252312,1212.68973 60.9068888,1241.08584 46.2447082,1273.51359 C83.186406,1236.84785 123.451743,1203.436 161.951894,1168.35752 C228.536005,974.759233 296.551348,782.621229 367.619986,593.562513 C454.909259,643.275543 532.529761,702.654995 619.516884,752.63786 C670.882224,703.829569 716.029654,648.830958 771.179808,603.832095 C828.969791,650.513455 881.68685,702.274053 940.844454,747.54275 C1023.80822,691.766382 1097.37357,626.577552 1182.51599,573.070967 C1232.97488,687.576011 1282.9567,805.223833 1331.57089,919.427297 C1348.2527,958.664401 1360.5772,1002.4252 1380.40772,1037.42432 C1402.4646,1076.24873 1436.48023,1111.94624 1462.67178,1147.77074 C1490.99428,1186.43642 1519.20546,1222.72122 1544.91993,1260.68852 C1533.85173,1277.02144 1505.09987,1275.60878 1511.52451,1309.41745 C1526.2662,1300.16371 1552.80761,1280.52929 1565.52968,1260.68852 C1536.25302,1221.67363 1503.19156,1183.32539 1472.94485,1142.67563 C1443.35014,1102.80362 1406.50386,1062.97923 1383.06345,1019.50413 C1344.22935,947.823405 1318.29224,866.3334 1285.27848,788.541715 C1252.90082,712.083329 1217.32674,635.688433 1187.60482,557.658658 C1145.622,583.562766 1105.88145,615.895282 1061.65637,649.989659 Z M496.096946,634.64084 C509.168868,637.00586 514.528038,647.037353 526.963857,649.989659 C566.195527,633.577375 593.866019,591.927634 606.651695,557.658658 C572.015872,585.515097 527.552253,603.514643 496.096946,634.64084 Z M1017.95607,647.465913 C1023.10851,643.19618 1027.51353,638.180434 1035.9737,637.196331 C1004.75693,602.514668 961.501908,579.800956 925.450755,549.928695 C939.985715,598.736986 986.914234,615.196887 1017.95607,647.465913 Z M1118.22185,575.594713 C1126.41168,573.499528 1131.29378,568.166329 1136.19177,562.801385 C1124.13761,557.658658 1109.42773,541.722553 1097.67572,544.817713 C1107.09005,552.484186 1111.44735,565.277513 1118.22185,575.594713 Z M460.141208,606.387586 C464.880177,619.625347 481.021298,621.498315 490.992217,629.450495 C527.393227,611.927129 554.507129,571.467833 565.511716,537.135367 C531.798242,561.626812 496.717146,584.769084 460.141208,606.387586 Z M408.744063,580.769186 C420.73461,583.245313 424.948794,593.610131 437.018854,596.133877 C445.017853,575.055044 466.056968,553.309562 467.85396,534.564004 C450.870003,552.642912 422.483894,559.404646 408.744063,580.769186 Z M796.926088,598.689368 C836.921082,628.910827 872.033982,664.036923 910.025251,696.210714 C874.514785,637.513784 856.513062,561.468086 796.926088,526.865785 C795.494856,550.849306 804.416204,577.070866 796.926088,598.689368 Z M1071.92944,614.101677 C1073.99677,608.419281 1080.9462,607.673268 1084.82643,603.832095 C1048.74347,569.721846 999.874839,548.373178 958.846177,519.151694 C979.3128,568.039348 1032.96811,583.721492 1071.92944,614.101677 Z M573.272176,691.067986 C587.520889,697.369415 596.712582,708.765952 611.804132,714.130896 C635.069609,698.06781 655.409011,673.370021 683.779218,647.465913 C704.468477,628.529884 748.979803,603.911458 755.770206,578.197822 C761.272499,557.420569 751.842268,537.754399 750.649575,514.02484 C728.513181,531.32599 702.70329,544.897076 678.626781,560.230022 C651.974054,607.99072 626.529923,657.0371 598.986651,703.908932 C591.09897,700.55981 579.108423,687.956954 573.272176,691.067986 Z M442.139485,601.260731 C457.215133,606.054261 476.234621,591.578436 485.855683,580.769186 C506.735773,557.071371 519.107982,514.69149 537.252828,490.96193 C539.972169,490.803204 539.288358,487.644554 534.724317,488.390567 C492.359839,512.897884 454.24135,555.166658 442.139485,601.260731 Z M1061.65637,539.659113 C1052.56009,511.136024 1027.51353,498.533168 1002.53057,485.787458 C1010.48186,515.500993 1038.10465,525.532486 1061.65637,539.659113 Z M542.389362,596.133877 C590.526477,568.912342 640.874052,530.23078 655.488524,478.120985 C608.830349,506.786927 555.588505,542.611419 542.389362,596.133877 Z M902.264791,560.230022 C881.352895,525.50074 853.205325,484.390668 817.456321,472.99413 C835.203603,510.834444 864.782405,550.62709 902.264791,560.230022 Z M925.450755,511.453476 C914.70061,491.342873 891.323814,470.264041 871.477392,467.851403 C882.863641,487.263611 905.731554,508.850367 925.450755,511.453476 Z M640.078922,514.02484 C621.472902,550.198529 598.668599,582.13423 578.392807,616.67304 C612.313014,598.356043 642.655141,576.499452 676.050563,557.658658 C691.332944,526.707059 707.903434,497.025269 724.9351,467.851403 C725.459885,464.629262 728.94255,462.597568 722.390687,462.724548 C697.296412,482.168502 668.162882,497.564938 640.078922,514.02484 Z M372.724715,555.055549 C381.884602,557.896747 385.828443,565.975908 395.894777,567.92824 C411.622431,528.881607 440.422006,489.215943 452.412553,455.02633 C426.427734,488.930236 399.186611,521.643695 372.724715,555.055549 Z M686.339533,552.531804 C706.058735,535.421125 732.011749,524.532511 753.162183,508.882113 C751.460606,482.358973 756.565335,449.026482 750.649575,426.788948 C731.741405,469.486282 699.427358,512.548687 686.339533,552.531804 Z M442.139485,485.787458 C420.543779,508.961476 417.220139,545.341509 398.455093,573.070967 C466.327312,550.119166 507.562707,486.946159 529.540076,426.788948 C506.65626,453.391451 465.548086,460.708726 442.139485,485.787458 Z M550.118017,478.120985 C524.228613,505.231411 515.227752,547.897 496.096946,575.594713 C523.576607,555.912671 551.867301,537.135367 580.969025,519.151694 C598.477768,485.311279 619.008001,454.518407 637.566315,421.693839 C612.535651,443.772646 573.733351,453.343833 550.118017,478.120985 Z M647.807577,503.787003 C684.144977,479.359049 742.571063,463.232472 748.073356,416.503494 C713.691974,444.709131 666.206865,459.724624 647.807577,503.787003 Z M827.713487,444.756748 C823.213056,428.693662 801.569642,416.201914 789.181531,416.503494 C802.142135,425.804846 814.196292,436.042683 827.713487,444.756748 Z M971.711366,485.787458 C955.220388,440.677486 922.09531,412.154397 881.718655,390.837476 C901.135707,433.122122 927.200039,468.629161 971.711366,485.787458 Z M1102.81225,506.326622 C1065.66382,468.946614 1033.23846,413.281353 997.394036,383.186875 C1032.72957,422.265253 1048.01195,495.168173 1102.81225,506.326622 Z M1010.24332,455.02633 C994.467961,422.900158 971.631853,384.075742 938.284139,378.044148 C957.732996,408.233862 970.932139,444.709131 1010.24332,455.02633 Z M490.992217,516.596203 C546.062858,488.581038 581.334785,427.169891 604.075477,375.472784 C548.511856,402.980026 510.679613,461.867427 490.992217,516.596203 Z M449.884043,478.120985 C491.087632,444.788494 554.793376,420.360539 565.511716,365.219075 C527.393227,401.583236 461.031753,423.408081 449.884043,478.120985 Z M645.199554,413.979748 C632.382073,449.026482 600.926766,479.216195 593.802409,511.453476 C618.499119,491.612708 646.249124,474.851226 673.537955,457.581821 C691.110308,422.979521 711.799567,391.424762 732.663754,360.076348 C733.220345,356.854207 736.607595,354.87013 730.023926,354.949493 C703.434809,376.29816 674.189961,394.964355 645.199554,413.979748 Z M683.779218,452.454967 C705.215898,435.344288 728.32235,419.979597 753.162183,406.249785 C751.540119,383.996379 756.565335,354.949493 750.649575,336.981693 C730.103439,375.520402 697.010166,415.154322 683.779218,452.454967 Z M871.477392,426.788948 C850.867646,385.710621 830.130679,344.870383 786.65302,326.712111 C809.218784,365.790489 827.443143,409.122728 871.477392,426.788948 Z M951.149327,357.520857 C945.837865,338.807044 921.252473,325.775627 907.43313,324.172493 C916.799751,340.473669 934.72196,348.25125 951.149327,357.520857 Z M550.118017,406.249785 C574.258136,395.313553 590.987652,376.96481 614.364447,365.219075 C619.357858,346.806842 645.883365,323.442353 640.078922,311.331548 C605.172755,338.061031 566.89524,361.473138 550.118017,406.249785 Z M915.177687,383.186875 C899.338716,346.806842 866.388566,327.55336 832.897728,308.776057 C845.41306,346.743351 884.533412,371.790338 915.177687,383.186875 Z M614.364447,370.34593 C590.717308,398.313477 581.128051,437.487091 557.830769,467.851403 C583.736075,444.64564 621.536512,435.836339 645.199554,411.376639 C671.184373,384.615411 677.974775,341.251427 701.828648,311.331548 C704.468477,311.188694 703.816471,308.030044 699.157014,308.776057 C675.621193,335.80712 637.470899,343.108523 614.364447,370.34593 Z M490.992217,408.852894 C531.448385,379.059995 589.667738,353.393977 601.546966,303.649202 C557.830769,331.838966 519.15569,365.139712 490.992217,408.852894 Z M655.488524,401.107057 C688.5977,369.187229 760.859032,362.568348 750.649575,295.935111 C713.946416,325.997844 673.99913,352.886053 655.488524,401.107057 Z M784.044997,298.506475 C790.708178,302.125431 795.876518,307.188795 802.046719,311.331548 C798.166489,298.935035 791.121646,289.713046 784.044997,280.538675 C784.044997,286.538523 784.044997,292.522499 784.044997,298.506475 Z M912.506053,290.808256 C899.640865,281.506904 887.586708,271.28494 874.021805,262.60262 C878.029256,279.094267 900.976682,290.379696 912.506053,290.808256 Z M868.869369,303.649202 C852.648735,285.586166 822.62466,267.745347 802.046719,262.60262 C821.559187,277.300661 849.468219,297.379519 868.869369,303.649202 Z M593.802409,336.981693 C626.132358,311.966452 672.790533,287.538498 681.234804,247.174438 C649.397835,272.713475 600.354273,294.77641 593.802409,336.981693 Z M694.068188,334.457947 C716.427218,322.553486 731.312035,303.173023 753.162183,290.808256 C751.540119,272.602367 756.883387,246.237954 748.073356,242.031711 C731.630087,274.427718 712.419768,303.998399 694.068188,334.457947 Z M624.653418,354.949493 C656.697121,339.076878 680.169332,314.617179 712.101716,298.506475 C721.770486,278.253018 733.697422,260.158237 745.497138,242.031711 C746.053728,238.80957 749.472784,236.825493 742.889115,236.904856 C700.302,273.062673 645.819755,297.379519 624.653418,354.949493 Z M668.337811,280.538675 C698.695839,262.062951 727.415902,242.031711 753.162183,218.968801 C746.117339,212.905463 757.265049,203.493002 748.073356,198.429638 C718.462749,222.730611 683.318043,241.60315 668.337811,280.538675 Z M778.89256,216.397438 C797.912048,223.984548 817.313198,244.761801 835.473947,244.63482 C822.847297,221.302076 805.13182,203.064441 778.89256,193.302783 C778.89256,201.032747 778.89256,208.69922 778.89256,216.397438 Z M552.678332,331.870711 C614.921038,306.744362 645.310872,236.127098 670.945834,183.064947 C632.970468,234.143021 591.369314,281.554522 552.678332,331.870711 Z M794.318065,175.334983 C787.813909,169.033555 786.303163,157.748126 778.89256,152.272074 C778.89256,158.224304 778.89256,164.240025 778.89256,170.239874 C785.905599,168.63674 790.96262,181.826883 794.318065,175.334983 Z M701.828648,226.66702 C719.925786,217.44503 734.23811,204.302505 750.649575,193.302783 C748.979803,177.858729 754.036825,155.732304 748.073356,144.557983 C734.778798,174.081047 715.807018,197.842351 701.828648,226.66702 Z M866.356761,218.968801 C846.573949,188.207674 823.05403,161.240101 799.470501,134.288401 C818.489989,165.811414 829.430965,205.318353 866.356761,218.968801 Z M622.093102,283.110038 C647.346402,269.840532 666.270475,250.237853 691.523775,236.904856 C707.93524,186.60454 761.940408,160.129018 748.073356,88.083219 C697.010166,144.050059 660.211591,214.175272 622.093102,283.110038 Z M781.468778,26.5133458 C775.346284,22.3547207 770.162043,17.3389743 763.467056,13.7200181 C764.039549,21.8150517 776.904737,30.9100601 781.468778,26.5133458 Z M740.312896,29.0847094 C747.325935,27.370467 761.272499,19.3706691 753.162183,11.1486545 C749.011609,17.227866 736.734815,15.1961713 740.312896,29.0847094 Z M758.346424,0.847327464 C769.191985,6.29163437 777.572646,14.1485788 786.65302,21.4182364 C784.887833,36.4019848 782.900011,49.6238731 773.756026,62.4489459 C895.887855,206.064366 1017.46309,349.267097 1141.37601,493.533294 C1157.86699,512.707413 1175.63017,537.405202 1200.4541,547.404949 C1231.54365,645.450091 1277.29538,734.67006 1316.11358,827.096296 C1329.07419,857.730443 1338.12276,892.427979 1354.72505,919.427297 C1427.32034,1037.47193 1509.50488,1146.10411 1580.89157,1260.68852 C1560.82251,1285.11647 1532.61133,1301.37003 1511.52451,1324.82975 C1511.52451,1361.38439 1511.52451,1399.30406 1511.52451,1437.71579 C1511.52451,1475.54023 1520.41405,1514.3329 1514.10073,1545.4591 C1508.07365,1575.17264 1480.99155,1593.50551 1472.94485,1617.31443 C1472.94485,1854.22908 1472.94485,2091.1596 1472.94485,2328.02663 C1528.66749,2334.01061 1595.42653,2328.96312 1655.45878,2330.62974 C1655.45878,2455.45199 1655.45878,2580.38534 1655.45878,2705.23933 C1392.44598,2705.23933 1129.36956,2705.23933 866.356761,2705.23933 C864.893723,2713.12802 870.793581,2726.96894 879.110631,2736.0322 C886.934702,2744.39707 906.351754,2748.47633 899.73628,2754 C883.833698,2746.46051 868.917076,2747.5081 850.867646,2738.55595 C832.357041,2729.38157 820.811766,2709.00114 807.183253,2705.23933 C781.691415,2698.27125 738.913469,2705.23933 704.388964,2705.23933 C477.475022,2705.23933 220.362078,2705.23933 0,2705.23933 C0,2580.38534 0,2455.45199 0,2330.62974 C34.2541615,2330.62974 68.5560307,2330.62974 102.810192,2330.62974 C105.609047,2080.57257 93.4435714,1838.94375 92.5530268,1583.98194 C85.9216501,1570.0934 75.9030235,1559.50637 71.9591832,1542.90361 C67.4110448,1532.85625 61.0977198,1555.53821 56.5495813,1545.4591 C46.7217857,1480.04806 59.2053125,1374.17771 48.8209265,1304.29059 C45.9902669,1285.06885 38.8818128,1283.48159 36.0034455,1270.9581 C74.821648,1215.56267 109.26664,1155.86577 149.086706,1101.56555 C205.270527,946.331379 269.501056,790.414683 331.632443,629.450495 C340.044909,607.720886 346.930727,579.800956 357.346918,562.801385 C369.480588,542.833636 392.221281,524.373785 408.744063,503.787003 C520.189357,364.949241 639.665455,216.635527 750.649575,77.861255 C741.171636,52.100001 717.922061,9.59313827 758.346424,0.847327464 Z" id="Fill-33" fill="#0A0B09" mask="url(#mask-2)"></path>
                </g>
                <path d="M1141.63826,1228.35768 C1152.50762,1230.63037 1149.58001,1215.40976 1141.63826,1215.40976 C1141.63826,1219.73107 1141.63826,1224.08438 1141.63826,1228.35768 Z M1131.18944,1236.15204 C1123.26387,1223.02806 1133.001,1199.75702 1120.70827,1186.98515 C1118.2659,1199.53295 1110.68,1237.80054 1131.18944,1236.15204 Z M1131.18944,1142.98783 C1136.80205,1145.16449 1135.4272,1154.35127 1138.98562,1158.51253 C1142.89989,1158.0804 1148.65806,1159.44081 1149.45062,1155.91975 C1137.20641,1157.21614 1140.40899,1143.16388 1141.63826,1137.80226 C1135.65365,1137.09805 1131.82026,1138.45846 1131.18944,1142.98783 Z M1089.32947,1114.4992 C1095.10381,1114.85131 1090.46169,1125.52654 1091.98211,1130.03991 C1099.30922,1126.98298 1103.38523,1120.66107 1102.41475,1109.36165 C1095.89637,1108.97753 1089.71766,1108.84949 1089.32947,1114.4992 Z M1060.58712,1011.04388 C1083.89479,1009.55543 1087.04884,1019.99059 1102.41475,1021.39902 C1103.43376,1005.20211 1070.63158,999.5524 1060.58712,1011.04388 Z M1112.86357,1047.27885 C1111.31081,1052.62447 1116.08233,1064.276 1110.2918,1065.36433 C1110.2918,1056.73772 1110.2918,1048.14311 1110.2918,1039.5165 C1101.80012,1048.30316 1092.77466,1037.2118 1084.08888,1031.75415 C1073.78563,1050.81592 1094.76415,1058.62629 1084.08888,1073.12668 C1088.76335,1072.82259 1090.2029,1075.71946 1089.32947,1080.88903 C1105.56881,1076.26363 1108.94931,1094.54116 1118.13651,1088.61937 C1115.98528,1076.93583 1128.35888,1050.97597 1112.86357,1047.27885 Z M1191.27825,1098.9745 C1196.97172,1114.30715 1196.77763,1118.82051 1201.72707,1137.80226 C1190.63126,1127.33509 1189.88723,1106.41676 1170.38061,1104.19208 C1168.61757,1084.34607 1152.03856,1079.20852 1149.45062,1060.19476 C1139.47086,1061.47515 1132.79073,1059.47454 1128.5368,1055.00919 C1118.89671,1066.45266 1130.62333,1085.78651 1118.13651,1091.24416 C1140.0208,1116.77189 1163.11819,1153.21493 1154.6912,1189.57794 C1155.06322,1199.53295 1163.57108,1201.53356 1162.55208,1212.81697 C1153.4134,1205.48675 1146.7171,1195.75581 1146.87885,1179.17479 C1133.001,1185.41668 1146.03777,1213.16908 1159.89944,1215.40976 C1163.27994,1238.63279 1157.61881,1243.09814 1152.10326,1261.99986 C1139.43851,1248.12366 1141.49269,1264.59265 1136.39768,1241.3056 C1129.96017,1243.49826 1137.20641,1259.29505 1131.18944,1261.99986 C1115.48386,1262.04788 1112.62095,1249.29202 1105.03504,1241.3056 C1114.41634,1229.02988 1105.92465,1209.21588 1089.32947,1207.69542 C1093.24373,1201.64559 1095.73462,1203.72622 1102.41475,1205.10264 C1095.10381,1190.98636 1090.88223,1171.17236 1076.27653,1171.44445 C1078.4601,1165.87476 1082.74639,1162.32168 1091.98211,1163.6821 C1092.06298,1155.79171 1086.41803,1153.64706 1084.08888,1148.1574 C1078.4601,1147.69325 1082.89196,1157.32817 1081.48476,1161.08931 C1077.6999,1157.4082 1071.42413,1157.32817 1073.62389,1166.3229 C1067.91424,1165.87476 1068.04363,1159.76091 1068.448,1153.32696 C1070.50218,1154.70338 1072.68576,1156.03178 1076.27653,1155.91975 C1057.01253,1140.53909 1065.82771,1113.05877 1068.448,1086.10661 C1073.86651,1084.58615 1075.83981,1079.64065 1084.08888,1080.88903 C1080.83778,1065.09224 1073.78563,1053.16863 1063.17507,1044.70207 C1047.30774,1053.08861 1066.89523,1067.2529 1068.448,1080.88903 C1056.10675,1090.50794 1051.64255,1074.5351 1047.50184,1067.95711 C1041.87306,1070.14978 1038.31464,1074.34305 1039.62478,1083.48181 C1021.39596,1051.95227 1043.42583,992.686321 1073.62389,977.433703 C1100.39292,974.296753 1108.85226,989.165255 1131.18944,990.349614 C1159.89944,1026.58459 1191.01945,1060.49885 1207,1109.36165 C1195.06311,1112.54661 1198.76711,1100.2709 1191.27825,1098.9745 Z" id="Fill-35" fill="#0A0B09"></path>
                <path d="M414.875517,1270.83654 C414.671081,1262.69771 428.509816,1245.16671 417.423102,1242.61242 C417.753345,1251.00509 401.036782,1265.50585 414.875517,1270.83654 Z M435.209022,1222.11463 C442.725971,1237.58316 427.157394,1254.81273 437.725156,1265.69623 C446.075574,1259.44535 435.287651,1249.67241 447.884045,1247.76859 C444.974766,1234.87022 445.996945,1228.4131 447.884045,1214.37243 C444.660249,1214.26137 444.39291,1211.12007 440.272741,1211.81814 C439.690885,1216.40317 442.851778,1224.63719 435.209022,1222.11463 Z M503.852292,1224.63719 C511.620855,1224.55786 519.782563,1201.36299 508.931737,1199.03081 C509.466415,1209.86672 505.000278,1215.59404 503.852292,1224.63719 Z M465.701416,1129.77938 C480.18491,1133.44423 455.935673,1135.07834 460.606246,1145.15272 C471.346991,1141.18643 460.071567,1159.36791 470.765135,1155.40162 C468.343357,1139.31434 470.592151,1130.28707 480.955476,1122.10064 C475.27845,1124.08379 467.163919,1123.56024 465.701416,1129.77938 Z M483.487336,1175.93114 C480.027652,1176.04219 477.904664,1174.72539 475.876032,1173.36098 C475.876032,1177.64458 475.876032,1181.88057 475.876032,1186.1959 C482.559512,1186.97329 482.417979,1180.83347 483.487336,1175.93114 Z M432.661437,1163.09622 C424.798519,1165.01591 429.547721,1154.27519 419.954962,1157.97177 C417.942055,1164.53995 429.89369,1169.74372 422.486821,1173.36098 C409.890427,1146.04117 455.102203,1113.85076 435.209022,1078.47144 C425.930779,1081.58102 429.783609,1088.1016 417.423102,1083.59589 C405.078322,1099.42932 399.181134,1121.65642 381.851263,1132.31781 C356.64275,1195.06452 336.922552,1323.11225 386.883531,1363.15592 C411.400108,1355.88968 403.458561,1315.38592 414.875517,1301.63082 C434.98886,1303.94713 443.417908,1294.47563 455.526801,1288.74831 C457.634063,1301.23419 464.050204,1313.27585 455.526801,1319.54259 C452.130021,1317.86088 450.824776,1314.06911 450.43163,1309.27783 C450.667518,1305.23221 456.942126,1307.29468 455.526801,1301.63082 C450.557437,1302.36062 450.463082,1298.15635 447.884045,1296.44291 C443.921135,1311.3403 453.608249,1325.57135 442.851778,1334.94766 C442.851778,1323.81032 442.851778,1312.7047 442.851778,1301.63082 C435.602168,1301.20246 437.866688,1310.2456 427.55054,1306.70767 C427.031588,1328.99823 421.228755,1330.53715 422.486821,1352.89116 C408.207763,1356.15938 404.85816,1355.73103 402.153317,1368.24864 C463.342541,1346.21193 485.704679,1286.25748 503.852292,1227.20734 C500.030914,1226.82658 494.448243,1228.11166 493.661951,1224.63719 C495.218809,1193.73185 515.976911,1182.19788 521.60676,1155.40162 C514.750296,1156.19488 509.623674,1158.71744 506.336974,1163.09622 C508.145445,1153.70405 510.740208,1143.62967 506.336974,1134.8721 C519.766837,1129.50967 531.938634,1103.47494 516.51159,1091.25877 C507.626493,1092.54384 511.90392,1107.15566 503.852292,1109.26572 C501.886563,1105.22011 495.737761,1105.45809 496.209536,1098.9851 C502.421241,1093.32124 503.569227,1082.46947 508.931737,1075.90129 C502.342612,1075.67918 506.226893,1064.93846 496.209536,1068.20668 C486.286534,1073.6167 492.513965,1095.30438 478.455069,1096.43081 C473.359898,1083.16753 486.585325,1067.22304 480.955476,1052.80161 C474.240545,1057.16453 470.120376,1064.12934 458.05866,1063.08224 C458.200193,1084.30982 455.479623,1060.24237 452.979216,1065.63653 C452.979216,1069.0634 452.979216,1072.49028 452.979216,1075.90129 C449.519532,1075.12389 448.135658,1072.2523 442.851778,1073.33113 C441.452178,1089.24389 444.046941,1101.17449 447.884045,1111.82002 C457.288094,1107.61575 464.805044,1101.4918 475.876032,1098.9851 C493.441789,1100.93651 488.975652,1125.11502 501.304707,1132.31781 C498.411153,1164.53995 495.486148,1182.15028 478.455069,1201.58511 C481.490155,1192.30399 474.287722,1180.32579 468.233276,1188.76605 C474.130464,1191.33621 476.457887,1197.53949 475.876032,1206.72542 C461.880038,1206.64609 462.540523,1227.87368 465.701416,1237.50383 C461.990119,1243.42154 457.634063,1232.45871 458.05866,1242.61242 C458.05866,1245.16671 458.05866,1247.76859 458.05866,1250.27529 C469.664327,1254.49542 466.06311,1237.85287 473.31272,1245.16671 C468.767954,1249.98972 466.471982,1257.01798 460.606246,1260.57178 C465.355448,1256.01848 459.961486,1252.67093 455.526801,1250.27529 C459.190921,1257.68432 452.004214,1263.55443 460.606246,1268.26638 C448.701788,1273.3591 448.623159,1290.35069 430.129577,1288.74831 C430.129577,1282.76714 430.129577,1276.81771 430.129577,1270.83654 C419.687623,1272.26441 431.088853,1288.63725 419.954962,1275.96099 C415.567454,1277.46818 420.159398,1288.08197 414.875517,1288.74831 C407.091229,1285.25797 412.469464,1265.07749 399.637183,1260.57178 C414.167855,1238.09084 427.36183,1218.49737 422.486821,1188.76605 C412.280754,1203.26681 419.530364,1235.33031 399.637183,1240.04226 C416.243665,1226.35062 397.828712,1207.2331 409.733169,1188.76605 C428.11667,1188.68673 431.277563,1173.83694 432.661437,1163.09622 Z M470.765135,1037.4124 C482.103462,1036.63501 493.709129,1032.1769 503.852292,1037.4124 C503.883744,1023.76836 472.274815,1028.86108 470.765135,1037.4124 Z M455.526801,1009.2676 C398.756536,1041.26764 342.866918,1141.53547 336.057631,1237.50383 C331.937463,1295.74485 340.916915,1375.3721 384.335945,1368.24864 C374.821815,1365.5357 368.893175,1358.03147 364.033892,1350.33687 C310.282988,1265.02989 375.906898,1087.95881 430.129577,1037.4124 C451.359455,1017.66028 468.343357,1015.6454 496.209536,1014.36032 C489.636137,1005.57102 469.585698,1010.47336 455.526801,1009.2676 Z M381.851263,1383.65371 C327.518503,1377.11726 321.165266,1284.55991 328.446327,1219.51274 C337.677392,1136.77592 388.062968,1049.35887 432.661437,1011.79017 C446.814688,1004.84122 476.489339,994.465408 493.661951,1006.66572 C493.772032,1008.2205 494.055097,1009.69596 496.209536,1009.2676 C481.883301,976.220471 433.353373,997.828823 414.875517,1011.79017 C375.010525,1055.34004 323.193898,1154.08481 313.176541,1245.16671 C306.634594,1304.6928 316.337434,1373.2303 341.105625,1396.52036 C380.042792,1432.9785 433.432003,1378.70378 445.383637,1352.89116 C427.707799,1366.97943 411.085591,1387.17578 381.851263,1383.65371 Z M402.153317,1011.79017 C431.356192,983.724693 483.125642,968.922496 511.463596,1006.66572 C524.075716,1023.46693 531.671295,1057.24386 534.313235,1081.0416 C547.129791,1195.84192 484.682499,1342.70573 422.486821,1396.52036 C396.539193,1418.93783 351.248788,1424.22093 328.446327,1393.90261 C308.128548,1366.93183 303.112007,1329.61697 303.001926,1291.31847 C302.655958,1177.05756 348.968542,1078.85221 402.153317,1011.79017 Z" id="Fill-36" fill="#0A0B09"></path>
                <path d="M491,1209 C491,1212.85979 491,1216.70172 491,1220.59725 C484.737934,1219.6323 480.663416,1221.07973 477.490636,1223.43849 C480.663416,1227.74502 480.663416,1230.71134 477.490636,1235 C469.191311,1224.06392 483.685907,1212.85979 491,1209" id="Fill-37" fill="#0A0B09"></path>
                <path d="M1244.62367,1211.26537 C1249.95053,1205.84267 1252.92403,1211.57524 1257.48763,1213.77531 C1254.38693,1223.9545 1259.88869,1251.17647 1260,1261.38664 C1256.61307,1267.35161 1250.49117,1283.6817 1257.48763,1291.41292 C1257.0106,1294.38766 1252.71731,1293.53552 1249.72792,1293.92286 C1247.85159,1301.66958 1256.77208,1298.74132 1254.91166,1306.48803 C1245.053,1305.99224 1253.9258,1308.50218 1252.30389,1313.97136 C1245.89576,1314.38969 1244.27385,1310.14449 1242,1306.48803 C1250.34806,1273.92083 1255.96113,1251.22295 1244.62367,1211.26537" id="Fill-38" fill="#0A0B09"></path>
                <path d="M1096,1252 C1109.97899,1264.67038 1122.94708,1278.3055 1147.01938,1280.63698 C1150.38381,1276.26345 1156.92314,1275.07359 1154.68018,1265.02412 C1166.25826,1268.11132 1165.73701,1258.96228 1167.45872,1252 C1177.89953,1266.56772 1187.81908,1281.53741 1193,1301.39518 C1180.26885,1302.26345 1187.70852,1323.69697 1172.60804,1322.20161 C1170.87054,1304.0804 1163.27292,1291.82808 1157.22325,1278.03216 C1155.21723,1279.41497 1153.11643,1280.74954 1149.60984,1280.63698 C1157.63394,1296.55535 1155.40677,1310.57638 1162.34099,1330 C1154.68018,1330 1147.01938,1330 1139.39016,1330 C1137.24198,1309.67594 1140.00619,1284.28695 1121.50969,1280.63698 C1114.62286,1285.718 1123.05765,1306.47619 1116.43934,1311.79839 C1111.29002,1298.08287 1118.76128,1285.39641 1113.84888,1272.83859 C1103.85035,1278.73964 1113.64354,1288.62832 1111.29002,1301.39518 C1094.38886,1291.69944 1113.13809,1261.4867 1096,1252" id="Fill-39" fill="#0A0B09"></path>
                <path d="M1197.93112,1309 C1198.86984,1321.38847 1189.89632,1323.62755 1190.29409,1335.42766 C1181.94108,1338.68004 1188.27345,1326.86359 1180,1330.14866 C1180.93872,1327.10875 1184.50267,1323.46412 1185.13909,1327.51734 C1191.66239,1323.70927 1189.54629,1310.96124 1197.93112,1309" id="Fill-40" fill="#0A0B09"></path>
                <path d="M1230.12717,1354 C1227.38843,1353.34879 1228.39157,1348.65677 1225,1348.60668 C1232.19714,1345.36735 1236.2734,1338.87199 1235.27026,1327 C1248.58179,1329.00371 1234.41043,1350.04267 1235.27026,1351.31169 C1235.65241,1339.85714 1231.25769,1351.2616 1230.12717,1354" id="Fill-41" fill="#0A0B09"></path>
                <path d="M1199.30561,1364.06375 C1209.33623,1362.92881 1201.01599,1377.30477 1208,1378.75749 C1204.34765,1383.97824 1197.47053,1371.52412 1199.30561,1364.06375" id="Fill-42" fill="#0A0B09"></path>
                <path d="M566.465125,1588.0076 C569.490668,1587.25361 558.561665,1642.92892 561.510026,1593.55971 C563.702001,1592.34305 565.924849,1591.07497 566.465125,1588.0076" id="Fill-43" fill="#0A0B09"></path>
                <path d="M337.820037,2084.19645 C344.165121,2084.24686 345.751391,2079.49158 354,2081.49115 C354,2085.08702 354,2088.68289 354,2092.31236 C349.22449,2093.90866 338.087199,2089.05256 337.820037,2095.10168 C337.402597,2107.04871 345.467532,2093.79104 348.606679,2100.44508 C343.213358,2114.25725 340.508349,2101.70531 327,2103.2512 C327,2099.60492 327,2095.97545 327,2092.31236 C334.046382,2093.0517 340.508349,2093.25334 337.820037,2084.19645" id="Fill-44" fill="#0A0B09"></path>
            </g>
        </g>
    </g>
</svg>
